<svg xmlns="http://www.w3.org/2000/svg">
  <defs>
    <symbol id="unionbank" viewBox="0 0 24 24" fill="none">
      <path fill-rule="evenodd" clip-rule="evenodd" d="M2.14288 0.942857L7.28574 2.91429V15.2693C7.28574 15.9327 7.44415 16.6228 7.95373 17.0474C8.90013 17.836 10.1176 17.8599 10.9475 16.9545C11.3071 16.5622 11.4 16.0086 11.4 15.4763V4.45714L18.6857 7.02857C21.1715 8.14286 21.9429 11.9143 20.0572 13.9714C22.2151 15.4597 22.6289 18.563 20.4571 20.4771C19.7536 21.0971 18.8316 21.3909 17.9156 21.5917C16.8077 21.8347 15.8706 21.9619 14.4857 22.1143C15.5668 20.691 15.9503 19.8832 16.1143 18.6857H17.8286C19.4572 18.6857 19.3715 15.6857 17.7429 15.6857H15L14.9831 16.1937C14.9374 17.5632 14.7929 18.9739 14.0672 20.1363C11.3069 24.5574 4.96239 23.9293 2.68761 18.7215C2.22195 17.6554 2.14288 16.4699 2.14288 15.3066V0.942857ZM15 9.17143V12.5143C15.0696 12.5187 15.137 12.523 15.2025 12.5272C15.7851 12.5645 16.2172 12.5922 16.7549 12.5698C17.2226 12.5503 17.6695 12.3151 17.8873 11.9008C18.6845 10.3851 17.5828 9.47529 15 9.17143Z" fill="currentColor"/>
    </symbol>
    <symbol id="paypal" viewBox="0 0 24 24" fill="none">
      <path d="M7.07601 21.337H2.47001C2.37748 21.337 2.28607 21.3169 2.20204 21.2782C2.11801 21.2394 2.04336 21.183 1.98321 21.1127C1.92307 21.0424 1.87886 20.9599 1.85362 20.8708C1.82839 20.7818 1.82272 20.6884 1.83701 20.597L4.94401 0.901C5.02601 0.382 5.47401 0 5.99801 0H13.458C16.028 0 18.036 0.543 19.148 1.81C20.158 2.96 20.452 4.23 20.16 6.097C20.137 6.24 20.113 6.385 20.083 6.534C19.1 11.584 15.734 13.331 11.436 13.331H9.24601C8.72201 13.331 8.27801 13.713 8.19601 14.231L7.07601 21.337ZM21.222 6.917C21.0424 6.71269 20.8386 6.53102 20.615 6.376C20.602 6.452 20.589 6.551 20.574 6.63C19.644 11.408 16.569 13.831 11.436 13.831H9.24601C9.11137 13.8312 8.98124 13.8796 8.87924 13.9675C8.77723 14.0553 8.71009 14.1769 8.69001 14.31L7.50301 21.837H6.99701L6.75701 23.353C6.74443 23.433 6.74934 23.5147 6.77141 23.5926C6.79348 23.6705 6.83218 23.7427 6.88484 23.8042C6.9375 23.8657 7.00287 23.9151 7.07644 23.9489C7.15001 23.9827 7.23004 24.0001 7.31101 24H11.193C11.653 24 12.043 23.666 12.115 23.212C12.175 22.952 12.875 18.36 12.931 18.122C12.9654 17.9021 13.0774 17.7017 13.2467 17.5572C13.416 17.4126 13.6314 17.3335 13.854 17.334H14.434C18.194 17.334 21.139 15.806 21.999 11.388C22.359 9.541 22.173 8 21.222 6.917Z" fill="currentColor"/>
    </symbol>
    <symbol id="gcash" viewBox="0 0 27 24" fill="none">
      <path d="M17.3051 19.7618C15.8424 20.95 14.0737 21.7007 12.2028 21.9274C10.332 22.1541 8.43512 21.8475 6.73094 21.043C5.02676 20.2384 3.5846 18.9687 2.57068 17.3802C1.55676 15.7917 1.01235 13.9489 1.00021 12.0644C0.988064 10.1799 1.50868 8.33036 2.50204 6.72888C3.4954 5.12741 4.92108 3.83923 6.61476 3.01281C8.30843 2.18639 10.2012 1.85538 12.0748 2.05793C13.9484 2.26048 15.7267 2.98834 17.2046 4.15762" stroke="currentColor" stroke-width="2" stroke-linecap="round"/>
      <path d="M13.8296 7.27169C12.7666 6.62838 11.5205 6.35534 10.2859 6.49525C9.05131 6.63516 7.89787 7.18012 7.00581 8.04498C6.11376 8.90985 5.53335 10.0459 5.3553 11.2755C5.17725 12.5052 5.41159 13.7592 6.02169 14.8415C6.63179 15.9239 7.58329 16.7737 8.72747 17.258C9.87166 17.7424 11.1441 17.834 12.3458 17.5186C13.5476 17.2032 14.6111 16.4986 15.37 15.5148C16.1289 14.5311 16.5405 13.3236 16.5405 12.0811H12.3458" stroke="currentColor" stroke-width="2" stroke-linecap="round" stroke-linejoin="round"/>
      <path d="M19.9431 7.52435C20.6485 8.96313 21.0102 10.546 20.9998 12.1484C20.9894 13.7507 20.6071 15.3288 19.8831 16.7583" stroke="currentColor" stroke-width="2" stroke-linecap="round"/>
      <path d="M23.7027 5.40541C24.7742 7.4345 25.3503 9.68838 25.3838 11.9828C25.4174 14.2772 24.9075 16.5469 23.8957 18.6065" stroke="currentColor" stroke-width="2" stroke-linecap="round"/>
    </symbol>
  </defs>
</svg>