<svg width="1080" height="1080" fill="none" xmlns="http://www.w3.org/2000/svg"><circle cx="540.501" cy="539.501" fill="url(#a)" r="410.501"/><circle cx="540.501" cy="539.501" fill="url(#b)" r="410.501"/><mask id="f" style="mask-type:alpha" maskUnits="userSpaceOnUse" x="130" y="129" width="822" height="822"><circle cx="540.501" cy="539.501" fill="url(#c)" r="410.501"/><circle cx="540.501" cy="539.501" fill="url(#d)" r="410.501"/></mask><g filter="url(#e)" mask="url(#f)"><mask id="i" style="mask-type:alpha" maskUnits="userSpaceOnUse" x="130" y="129" width="822" height="822"><circle cx="540.501" cy="539.501" fill="url(#g)" r="410.501"/><circle cx="540.501" cy="539.501" fill="url(#h)" r="410.501"/></mask><g mask="url(#i)"><circle cx="460.5" cy="389.5" fill="url(#j)" r="366.5"/><circle cx="460.5" cy="389.5" fill="url(#k)" r="366.5"/><circle cx="893.5" cy="872.5" r="332.5" fill="url(#l)"/><circle cx="893.5" cy="872.5" r="332.5" fill="url(#m)"/><circle cx="603" cy="671.5" r="270" fill="url(#n)"/><circle cx="603" cy="671.5" r="270" fill="url(#o)"/></g></g><path d="M341.28 223.894c-64.897 9.026-121.551 36.758-166.168 81.627-49.85 50.1-80.336 114.721-90.542 192.424-2.093 16.09-2.093 68.937 0 85.027 5.496 41.99 16.748 79.011 34.411 113.806 44.878 88.56 125.738 146.248 222.691 158.937 19.758 2.486 56.523 2.486 75.757 0 56.523-7.457 108.467-32.18 149.289-71.292 6.804-6.411 12.692-11.773 13.215-11.773.393 0 .785 15.305.785 34.01v34.011h205.42V238.937H578.101v56.641l-3.793-3.139c-2.095-1.7-7.851-6.54-12.693-10.726-35.195-29.956-83.214-50.232-135.419-57.166-23.29-3.139-64.898-3.4-84.916-.653Zm137.514 178.951c30.355 7.979 55.084 23.676 73.663 46.83 42.915 53.764 40.299 138.268-5.758 188.63-49.457 54.156-146.671 57.296-201.494 6.672-19.102-17.79-31.925-41.206-39.513-72.47-1.047-4.709-1.702-15.697-1.702-32.049 0-21.06.524-26.554 2.879-35.972 12.429-48.662 46.841-85.421 93.421-99.549 16.747-5.101 26.952-6.409 46.971-5.886 14.916.392 21.72 1.177 31.533 3.794Zm251.345 191.507c8.897 3.925 18.187 13.343 22.374 22.369 4.318 9.419 4.056 25.901-.524 35.712-12.168 25.901-45.533 34.142-67.514 16.744-11.383-9.156-18.579-25.901-16.747-39.505 3.925-30.479 34.41-47.616 62.411-35.32Zm-10.73 107.659c21.851 4.186 36.637 19.752 36.637 38.589-.132 19.23-15.701 40.683-44.225 60.828-6.673 4.709-12.561 8.633-13.084 8.764-.524.262-.916-5.887-.916-13.735-.131-12.427-.523-14.913-3.664-21.584-5.102-11.119-12.691-19.491-26.561-29.171-12.953-9.026-17.009-13.473-18.317-20.014-1.962-9.549 16.879-19.36 43.963-23.023 15.962-2.224 17.924-2.224 26.167-.654Z" fill="url(#p)"/><defs><linearGradient id="a" x1="1198.67" y1="499.935" x2="-1201.05" y2="398.128" gradientUnits="userSpaceOnUse"><stop offset=".179" stop-color="#FD0"/><stop offset=".551" stop-color="#FF9500"/></linearGradient><linearGradient id="b" x1="1469.39" y1="-173.793" x2="205.421" y2="475.252" gradientUnits="userSpaceOnUse"><stop stop-color="#F50E53"/><stop offset="1" stop-color="#fff" stop-opacity="0"/></linearGradient><linearGradient id="c" x1="1198.67" y1="499.935" x2="-1201.05" y2="398.128" gradientUnits="userSpaceOnUse"><stop offset=".179" stop-color="#FD0"/><stop offset=".551" stop-color="#FF9500"/></linearGradient><linearGradient id="d" x1="1469.39" y1="-173.793" x2="205.421" y2="475.252" gradientUnits="userSpaceOnUse"><stop stop-color="#F50E53"/><stop offset="1" stop-color="#fff" stop-opacity="0"/></linearGradient><linearGradient id="g" x1="1198.67" y1="499.935" x2="-1201.05" y2="398.128" gradientUnits="userSpaceOnUse"><stop offset=".179" stop-color="#FD0"/><stop offset=".551" stop-color="#FF9500"/></linearGradient><linearGradient id="h" x1="1469.39" y1="-173.793" x2="205.421" y2="475.252" gradientUnits="userSpaceOnUse"><stop stop-color="#F50E53"/><stop offset="1" stop-color="#fff" stop-opacity="0"/></linearGradient><linearGradient id="j" x1="1048.12" y1="354.175" x2="-1094.37" y2="263.281" gradientUnits="userSpaceOnUse"><stop offset=".179" stop-color="#FD0"/><stop offset=".551" stop-color="#FF9500"/></linearGradient><linearGradient id="k" x1="933.646" y1="-82.143" x2="46.328" y2="466.337" gradientUnits="userSpaceOnUse"><stop stop-color="#F50E53"/><stop offset="1" stop-color="#fff" stop-opacity="0"/></linearGradient><linearGradient id="l" x1="1305" y1="-77" x2="369.024" y2="816.135" gradientUnits="userSpaceOnUse"><stop offset=".549" stop-color="#FD0"/><stop offset="1" stop-color="#FF9500"/></linearGradient><linearGradient id="m" x1="1645.89" y1="294.742" x2="622.09" y2="820.459" gradientUnits="userSpaceOnUse"><stop stop-color="#F50E53"/><stop offset="1" stop-color="#fff" stop-opacity="0"/></linearGradient><linearGradient id="n" x1="1035.9" y1="645.476" x2="-98.836" y2="580.451" gradientUnits="userSpaceOnUse"><stop stop-color="#FD0"/><stop offset="1" stop-color="#FF9500"/></linearGradient><linearGradient id="o" x1="29" y1="870" x2="860.879" y2="675.804" gradientUnits="userSpaceOnUse"><stop stop-color="#F50E53"/><stop offset="1" stop-color="#fff" stop-opacity="0"/></linearGradient><linearGradient id="p" x1="83" y1="222" x2="785.673" y2="857.321" gradientUnits="userSpaceOnUse"><stop/><stop offset="1" stop-color="#555"/></linearGradient><filter id="e" x="103.333" y="102.333" width="874.336" height="874.336" filterUnits="userSpaceOnUse" color-interpolation-filters="sRGB"><feFlood flood-opacity="0" result="BackgroundImageFix"/><feBlend in="SourceGraphic" in2="BackgroundImageFix" result="shape"/><feGaussianBlur stdDeviation="13.333" result="effect1_foregroundBlur_22_84"/></filter></defs></svg>