<svg width="1073" height="550" viewBox="0 0 1073 550" fill="none" xmlns="http://www.w3.org/2000/svg">
<path d="M108.208 147.248C109.659 147.248 110.96 147.355 112.112 147.568C113.264 147.781 114.288 148.101 115.184 148.528C116.08 148.912 116.805 149.403 117.36 150C117.872 150.469 118.213 151.024 118.384 151.664C118.597 152.304 118.704 153.115 118.704 154.096C118.704 154.779 118.661 155.376 118.576 155.888C118.491 156.357 118.341 156.848 118.128 157.36H117.744C116.251 155.909 114.779 154.864 113.328 154.224C111.92 153.584 110.043 153.264 107.696 153.264C105.349 153.264 103.301 153.861 101.552 155.056C99.8453 156.208 98.5227 157.829 97.584 159.92C96.688 162.011 96.24 164.4 96.24 167.088V167.92C96.24 169.328 96.4107 170.651 96.752 171.888C97.0933 173.125 97.648 174.277 98.416 175.344C99.7387 175.856 101.083 176.261 102.448 176.56C103.856 176.816 105.328 176.944 106.864 176.944C108.571 176.944 110.107 176.816 111.472 176.56C112.837 176.261 114.075 175.792 115.184 175.152C116.336 174.512 117.424 173.744 118.448 172.848H118.832C118.875 173.104 118.917 173.403 118.96 173.744C119.003 174.043 119.024 174.427 119.024 174.896C119.024 175.835 118.896 176.709 118.64 177.52C118.427 178.288 118 178.971 117.36 179.568C116.805 180.165 116.016 180.699 114.992 181.168C113.968 181.595 112.773 181.957 111.408 182.256C110.085 182.555 108.571 182.704 106.864 182.704C104.475 182.704 102.256 182.341 100.208 181.616C98.2027 180.848 96.4533 179.781 94.96 178.416C93.5093 177.051 92.3573 175.451 91.504 173.616C90.6933 171.739 90.288 169.669 90.288 167.408V166.576C90.288 162.523 91.056 159.067 92.592 156.208C94.1707 153.307 96.304 151.088 98.992 149.552C101.68 148.016 104.752 147.248 108.208 147.248ZM128.535 176.176H146.903C149.762 176.176 152.194 176.368 154.199 176.752C156.204 177.093 157.74 177.605 158.807 178.288C159.874 178.928 160.407 179.675 160.407 180.528C160.407 180.699 160.386 180.869 160.343 181.04C160.343 181.211 160.322 181.381 160.279 181.552C160.279 181.723 160.236 181.872 160.151 182H132.311C131.202 182 130.37 181.872 129.815 181.616C129.26 181.317 128.876 180.869 128.663 180.272C128.45 179.675 128.343 178.928 128.343 178.032C128.343 177.776 128.343 177.541 128.343 177.328C128.386 177.115 128.407 176.923 128.407 176.752C128.45 176.539 128.492 176.347 128.535 176.176ZM129.239 134C130.775 133.829 132.29 133.701 133.783 133.616C135.276 133.531 136.727 133.467 138.135 133.424C139.586 133.381 140.866 133.36 141.975 133.36C143.298 133.36 144.386 133.467 145.239 133.68C146.135 133.893 146.796 134.277 147.223 134.832C147.65 135.387 147.863 136.176 147.863 137.2C147.863 140.528 147.863 143.877 147.863 147.248C147.863 150.619 147.863 153.989 147.863 157.36C147.863 160.731 147.863 164.101 147.863 167.472C147.863 170.8 147.863 174.128 147.863 177.456H142.615L143.383 175.856C142.914 175.259 142.551 174.533 142.295 173.68C142.082 172.784 141.975 171.739 141.975 170.544C141.975 167.899 141.975 165.253 141.975 162.608C141.975 159.963 141.975 157.317 141.975 154.672C141.975 152.027 141.975 149.381 141.975 146.736C141.975 144.048 141.975 141.403 141.975 138.8L141.719 138.48C138.86 138.821 136.578 139.163 134.871 139.504C133.207 139.803 132.034 139.952 131.351 139.952C130.882 139.952 130.455 139.824 130.071 139.568C129.687 139.312 129.388 138.928 129.175 138.416C128.962 137.861 128.855 137.179 128.855 136.368C128.855 135.941 128.876 135.515 128.919 135.088C129.004 134.661 129.111 134.299 129.239 134ZM194.366 159.408C194.366 160.56 194.366 161.712 194.366 162.864C194.366 163.973 194.366 165.104 194.366 166.256C194.366 167.408 194.366 168.56 194.366 169.712C194.366 170.821 194.366 171.952 194.366 173.104C194.366 173.744 194.366 174.32 194.366 174.832C194.409 175.301 194.473 175.813 194.558 176.368C194.771 176.496 195.006 176.603 195.262 176.688C195.518 176.731 195.774 176.752 196.03 176.752C196.542 176.752 197.033 176.688 197.502 176.56C197.971 176.389 198.398 176.176 198.782 175.92H199.166C199.166 176.091 199.166 176.24 199.166 176.368C199.209 176.496 199.23 176.667 199.23 176.88C199.23 177.733 199.081 178.565 198.782 179.376C198.526 180.144 198.163 180.763 197.694 181.232C197.267 181.659 196.798 181.979 196.286 182.192C195.817 182.405 195.305 182.512 194.75 182.512C193.726 182.512 192.809 182.299 191.998 181.872C191.187 181.445 190.505 180.848 189.95 180.08C189.395 179.312 188.969 178.416 188.67 177.392C188.371 176.368 188.222 175.301 188.222 174.192C188.222 172.869 188.222 171.504 188.222 170.096C188.222 168.688 188.222 167.472 188.222 166.448C188.222 164.784 188.243 163.312 188.286 162.032C188.329 160.752 188.35 159.557 188.35 158.448C188.393 157.339 188.414 156.229 188.414 155.12C187.774 154.608 187.027 154.203 186.174 153.904C185.363 153.563 184.446 153.328 183.422 153.2C182.441 153.072 181.31 153.008 180.03 153.008C178.793 153.008 177.598 153.072 176.446 153.2C175.337 153.328 174.27 153.499 173.246 153.712C172.265 153.925 171.305 154.203 170.366 154.544H169.982C169.939 154.288 169.897 153.989 169.854 153.648C169.811 153.307 169.79 152.987 169.79 152.688C169.79 152.005 169.875 151.387 170.046 150.832C170.217 150.235 170.515 149.723 170.942 149.296C171.369 148.869 172.051 148.507 172.99 148.208C173.971 147.909 175.166 147.696 176.574 147.568C177.982 147.397 179.539 147.312 181.246 147.312C183.379 147.312 185.257 147.632 186.878 148.272C188.499 148.912 189.865 149.787 190.974 150.896C192.083 152.005 192.915 153.285 193.47 154.736C194.067 156.187 194.366 157.744 194.366 159.408ZM173.438 172.912C173.438 174.448 173.822 175.579 174.59 176.304C175.401 176.987 176.681 177.328 178.43 177.328C179.582 177.328 180.755 177.115 181.95 176.688C183.187 176.219 184.425 175.515 185.662 174.576C186.899 173.637 188.094 172.4 189.246 170.864L189.502 175.92H188.158C187.518 177.029 186.643 178.117 185.534 179.184C184.467 180.208 183.187 181.04 181.694 181.68C180.243 182.32 178.665 182.64 176.958 182.64C174.953 182.64 173.203 182.277 171.71 181.552C170.259 180.827 169.15 179.76 168.382 178.352C167.657 176.944 167.294 175.216 167.294 173.168V172.784C167.294 171.419 167.571 170.139 168.126 168.944C168.723 167.707 169.555 166.619 170.622 165.68C171.689 164.741 172.926 164.016 174.334 163.504C175.785 162.949 177.385 162.672 179.134 162.672C180.841 162.672 182.441 162.757 183.934 162.928C185.47 163.099 186.771 163.355 187.838 163.696C188.947 163.995 189.715 164.293 190.142 164.592C190.398 164.805 190.59 165.083 190.718 165.424C190.846 165.723 190.931 166.085 190.974 166.512C191.059 166.939 191.102 167.472 191.102 168.112C189.907 167.813 188.713 167.6 187.518 167.472C186.323 167.301 185.129 167.173 183.934 167.088C182.782 167.003 181.63 166.96 180.478 166.96C179.07 166.96 177.854 167.088 176.83 167.344C175.806 167.6 174.931 167.963 174.206 168.432C173.993 169.029 173.801 169.669 173.63 170.352C173.502 171.035 173.438 171.824 173.438 172.72V172.912ZM237.541 182C237.37 182.043 237.157 182.085 236.901 182.128C236.688 182.171 236.453 182.192 236.197 182.192C235.984 182.235 235.728 182.256 235.429 182.256C234.405 182.256 233.53 182.043 232.805 181.616C232.08 181.189 231.525 180.4 231.141 179.248C230.8 178.053 230.629 176.325 230.629 174.064C230.629 172.955 230.65 171.824 230.693 170.672C230.736 169.52 230.778 168.368 230.821 167.216C230.864 166.021 230.906 164.805 230.949 163.568C231.034 162.331 231.12 161.029 231.205 159.664C231.333 158.299 231.461 156.848 231.589 155.312C231.376 154.629 231.077 154.117 230.693 153.776C230.352 153.435 229.84 153.264 229.157 153.264C228.218 153.264 227.28 153.627 226.341 154.352C225.445 155.035 224.57 156.037 223.717 157.36C222.906 158.64 222.181 160.133 221.541 161.84V153.84H222.757C223.44 152.56 224.186 151.429 224.997 150.448C225.85 149.424 226.768 148.635 227.749 148.08C228.73 147.525 229.712 147.248 230.693 147.248C231.546 147.248 232.336 147.483 233.061 147.952C233.786 148.379 234.405 148.955 234.917 149.68C235.472 150.363 235.877 151.131 236.133 151.984C236.432 152.795 236.581 153.627 236.581 154.48C236.581 156.059 236.581 157.616 236.581 159.152C236.581 160.688 236.581 162.245 236.581 163.824C236.581 165.36 236.581 166.917 236.581 168.496C236.581 170.032 236.581 171.568 236.581 173.104C236.581 174.853 236.645 176.389 236.773 177.712C236.901 178.992 237.157 180.421 237.541 182ZM222.437 182C222.352 182.043 222.245 182.064 222.117 182.064C222.032 182.107 221.925 182.128 221.797 182.128C221.669 182.171 221.541 182.192 221.413 182.192C220.688 182.192 220.069 182 219.557 181.616C219.045 181.189 218.64 180.464 218.341 179.44C218.085 178.373 217.957 176.901 217.957 175.024C217.957 173.829 217.957 172.656 217.957 171.504C218 170.352 218.042 169.179 218.085 167.984C218.128 166.789 218.17 165.531 218.213 164.208C218.298 162.885 218.384 161.499 218.469 160.048C218.597 158.597 218.725 157.04 218.853 155.376C218.682 154.864 218.469 154.459 218.213 154.16C218 153.819 217.722 153.584 217.381 153.456C217.082 153.328 216.698 153.264 216.229 153.264C215.376 153.264 214.544 153.541 213.733 154.096C212.965 154.651 212.176 155.589 211.365 156.912C210.597 158.192 209.765 159.963 208.869 162.224L208.741 154.032H209.957C210.554 152.539 211.216 151.301 211.941 150.32C212.709 149.339 213.52 148.592 214.373 148.08C215.269 147.568 216.186 147.312 217.125 147.312C218.021 147.312 218.789 147.547 219.429 148.016C220.112 148.485 220.666 149.083 221.093 149.808C221.52 150.533 221.84 151.301 222.053 152.112C222.309 152.88 222.437 153.584 222.437 154.224C222.437 156.528 222.437 158.832 222.437 161.136C222.437 163.44 222.437 165.765 222.437 168.112C222.437 170.416 222.437 172.741 222.437 175.088C222.437 177.392 222.437 179.696 222.437 182ZM209.637 182.192C209.509 182.192 209.36 182.213 209.189 182.256C209.061 182.299 208.912 182.32 208.741 182.32C208.613 182.32 208.464 182.32 208.293 182.32C208.122 182.32 207.93 182.32 207.717 182.32C207.162 182.32 206.65 182.299 206.181 182.256C205.712 182.213 205.328 182.107 205.029 181.936C204.73 181.723 204.496 181.467 204.325 181.168C204.154 180.827 204.069 180.379 204.069 179.824C204.069 176.923 204.069 174.043 204.069 171.184C204.069 168.283 204.069 165.403 204.069 162.544C204.069 159.643 204.069 156.741 204.069 153.84C204.069 152.475 204.005 151.387 203.877 150.576C203.792 149.723 203.6 148.805 203.301 147.824C203.429 147.781 203.557 147.739 203.685 147.696C203.856 147.653 204.005 147.632 204.133 147.632C204.304 147.589 204.453 147.568 204.581 147.568C204.752 147.568 204.901 147.568 205.029 147.568C205.626 147.568 206.181 147.717 206.693 148.016C207.248 148.272 207.738 148.656 208.165 149.168C208.634 149.68 208.997 150.341 209.253 151.152C209.509 151.92 209.637 152.859 209.637 153.968C209.637 157.083 209.637 160.219 209.637 163.376C209.637 166.533 209.637 169.669 209.637 172.784C209.637 175.899 209.637 179.035 209.637 182.192ZM244.428 147.824C244.641 147.739 244.833 147.696 245.004 147.696C245.217 147.653 245.431 147.632 245.644 147.632C245.857 147.589 246.049 147.568 246.22 147.568C247.159 147.568 247.991 147.803 248.716 148.272C249.484 148.741 250.081 149.531 250.508 150.64C250.977 151.707 251.212 153.157 251.212 154.992C251.212 158.405 251.212 161.776 251.212 165.104C251.212 168.389 251.212 171.653 251.212 174.896C251.212 178.139 251.212 181.403 251.212 184.688C251.212 187.973 251.212 191.323 251.212 194.736C251.041 194.736 250.871 194.736 250.7 194.736C250.529 194.779 250.359 194.8 250.188 194.8C250.06 194.8 249.911 194.8 249.74 194.8C248.716 194.8 247.884 194.565 247.244 194.096C246.604 193.669 246.113 193.072 245.772 192.304C245.473 191.536 245.324 190.683 245.324 189.744C245.324 186.501 245.324 183.387 245.324 180.4C245.324 177.413 245.324 174.491 245.324 171.632C245.324 168.731 245.324 165.829 245.324 162.928C245.324 159.984 245.324 156.912 245.324 153.712C245.324 152.389 245.26 151.28 245.132 150.384C245.004 149.488 244.769 148.635 244.428 147.824ZM263.948 147.248C265.911 147.248 267.639 147.824 269.132 148.976C270.668 150.085 271.863 151.643 272.716 153.648C273.612 155.611 274.06 157.893 274.06 160.496V161.712C274.06 165.381 273.697 168.539 272.972 171.184C272.289 173.829 271.308 176.005 270.028 177.712C268.791 179.419 267.34 180.677 265.676 181.488C264.012 182.299 262.22 182.704 260.3 182.704C259.02 182.704 257.825 182.469 256.716 182C255.607 181.488 254.625 180.869 253.772 180.144C252.919 179.419 252.215 178.651 251.66 177.84H250.508V172.656C251.831 174.064 253.111 175.152 254.348 175.92C255.585 176.645 257.143 177.008 259.02 177.008C261.068 177.008 262.753 176.453 264.076 175.344C265.399 174.192 266.38 172.528 267.02 170.352C267.703 168.176 268.044 165.488 268.044 162.288V161.648C268.044 160.453 268.001 159.387 267.916 158.448C267.831 157.467 267.66 156.571 267.404 155.76C266.935 154.907 266.38 154.309 265.74 153.968C265.143 153.584 264.375 153.392 263.436 153.392C261.857 153.392 260.321 153.819 258.828 154.672C257.335 155.525 255.905 156.933 254.54 158.896C253.217 160.859 251.916 163.525 250.636 166.896V157.936H251.724C252.492 155.76 253.516 153.883 254.796 152.304C256.076 150.683 257.505 149.445 259.084 148.592C260.663 147.696 262.284 147.248 263.948 147.248ZM301.747 134.512C302.387 133.872 302.984 133.424 303.539 133.168C304.136 132.869 304.776 132.72 305.459 132.72C306.099 132.72 306.654 132.784 307.123 132.912C307.592 133.04 308.019 133.211 308.403 133.424C308.787 133.595 309.15 133.829 309.491 134.128V134.448C306.846 136.923 304.627 139.653 302.835 142.64C301.043 145.627 299.699 148.805 298.803 152.176C297.95 155.547 297.523 159.045 297.523 162.672V163.056C297.523 166.683 297.971 170.181 298.867 173.552C299.763 176.923 301.086 180.101 302.835 183.088C304.627 186.075 306.846 188.827 309.491 191.344V191.664C309.15 191.92 308.787 192.155 308.403 192.368C308.019 192.581 307.592 192.731 307.123 192.816C306.654 192.944 306.099 193.008 305.459 193.008C304.776 193.008 304.136 192.859 303.539 192.56C302.984 192.304 302.387 191.856 301.747 191.216C299.443 188.912 297.48 186.288 295.859 183.344C294.238 180.443 293 177.285 292.147 173.872C291.336 170.416 290.931 166.811 290.931 163.056V162.672C290.931 158.917 291.336 155.333 292.147 151.92C293 148.507 294.238 145.328 295.859 142.384C297.48 139.44 299.443 136.816 301.747 134.512ZM333.658 136.944C333.786 136.901 333.935 136.88 334.106 136.88C334.277 136.837 334.447 136.795 334.618 136.752C334.831 136.709 335.045 136.667 335.258 136.624C335.471 136.581 335.685 136.56 335.898 136.56C336.111 136.56 336.346 136.56 336.602 136.56C337.498 136.56 338.245 136.645 338.842 136.816C339.439 136.944 339.887 137.179 340.186 137.52C340.485 137.819 340.634 138.245 340.634 138.8C340.634 139.611 340.634 140.827 340.634 142.448C340.634 144.027 340.634 145.883 340.634 148.016C340.634 150.149 340.634 152.411 340.634 154.8C340.634 157.147 340.634 159.515 340.634 161.904C340.634 164.293 340.634 166.555 340.634 168.688C340.634 170.779 340.634 172.635 340.634 174.256C340.634 175.835 340.634 177.029 340.634 177.84H336.282V175.792C335.941 175.493 335.663 175.109 335.45 174.64C335.237 174.171 335.066 173.637 334.938 173.04C334.81 172.4 334.746 171.717 334.746 170.992C334.746 170.523 334.746 169.733 334.746 168.624C334.746 167.472 334.746 166.128 334.746 164.592C334.746 163.056 334.746 161.413 334.746 159.664C334.746 157.872 334.746 156.08 334.746 154.288C334.746 152.453 334.746 150.725 334.746 149.104C334.746 147.483 334.746 146.032 334.746 144.752C334.746 143.472 334.746 142.491 334.746 141.808L336.282 143.856H333.018L335.13 141.872C334.746 142.981 334.277 144.048 333.722 145.072C333.167 146.053 332.527 146.992 331.802 147.888C331.119 148.741 330.33 149.595 329.434 150.448C328.666 151.173 327.962 151.749 327.322 152.176C326.725 152.603 326.149 152.923 325.594 153.136C325.082 153.307 324.591 153.392 324.122 153.392C323.653 153.392 323.247 153.243 322.906 152.944C322.607 152.645 322.351 152.155 322.138 151.472C321.967 150.789 321.882 149.893 321.882 148.784V147.952C323.247 147.312 324.527 146.565 325.722 145.712C326.917 144.859 328.09 143.856 329.242 142.704C329.882 142.064 330.458 141.403 330.97 140.72C331.525 140.037 332.015 139.376 332.442 138.736C332.911 138.096 333.317 137.499 333.658 136.944ZM321.306 176.176C321.434 176.176 321.754 176.176 322.266 176.176C322.821 176.176 323.503 176.176 324.314 176.176C325.167 176.176 326.106 176.176 327.13 176.176C328.154 176.176 329.242 176.176 330.394 176.176C331.546 176.176 332.677 176.176 333.786 176.176C334.895 176.176 335.941 176.176 336.922 176.176C337.946 176.176 338.842 176.176 339.61 176.176C343.45 176.176 346.458 176.603 348.634 177.456C350.81 178.267 351.898 179.291 351.898 180.528C351.898 180.699 351.898 180.848 351.898 180.976C351.898 181.104 351.877 181.232 351.834 181.36C351.834 181.445 351.834 181.552 351.834 181.68C351.834 181.765 351.813 181.872 351.77 182C351.642 182 351.13 182 350.234 182C349.338 182 348.165 182 346.714 182C345.263 182 343.685 182 341.978 182C340.271 182 338.522 182 336.73 182C334.938 182 333.253 182 331.674 182C330.095 182 328.73 182 327.578 182C326.469 182 325.701 182 325.274 182C324.506 182 323.887 181.957 323.418 181.872C322.949 181.744 322.565 181.531 322.266 181.232C321.882 180.848 321.605 180.357 321.434 179.76C321.306 179.163 321.242 178.501 321.242 177.776C321.242 177.648 321.242 177.52 321.242 177.392C321.242 177.264 321.242 177.157 321.242 177.072C321.242 176.944 321.242 176.837 321.242 176.752C321.242 176.624 321.242 176.517 321.242 176.432C321.285 176.347 321.306 176.261 321.306 176.176ZM368.129 176.752L368.641 175.856C368.342 175.472 368.065 175.024 367.809 174.512C367.596 174 367.425 173.424 367.297 172.784C367.212 172.101 367.169 171.355 367.169 170.544C367.169 168.581 367.169 166.619 367.169 164.656C367.169 162.651 367.169 160.667 367.169 158.704C367.169 156.699 367.169 154.693 367.169 152.688L366.849 152.432C365.228 153.115 363.884 153.648 362.817 154.032C361.75 154.373 361.004 154.544 360.577 154.544C359.937 154.544 359.382 154.224 358.913 153.584C358.444 152.901 358.209 151.941 358.209 150.704C358.209 150.192 358.252 149.701 358.337 149.232C358.422 148.72 358.508 148.293 358.593 147.952C359.062 147.909 359.553 147.867 360.065 147.824C360.62 147.739 361.153 147.675 361.665 147.632C362.177 147.589 362.668 147.547 363.137 147.504C363.649 147.461 364.118 147.44 364.545 147.44C365.014 147.397 365.484 147.376 365.953 147.376C366.422 147.333 366.828 147.312 367.169 147.312C368.108 147.312 368.918 147.419 369.601 147.632C370.284 147.845 370.838 148.229 371.265 148.784C371.734 149.296 372.097 150.021 372.353 150.96C372.609 151.856 372.78 153.008 372.865 154.416C372.993 155.824 373.057 157.531 373.057 159.536C373.057 161.029 373.057 162.523 373.057 164.016C373.057 165.509 373.057 167.003 373.057 168.496C373.057 169.989 373.057 171.483 373.057 172.976C373.057 174.469 373.057 175.963 373.057 177.456L368.129 176.752ZM372.609 159.152H373.441C374.806 155.099 376.577 152.069 378.753 150.064C380.972 148.016 383.404 146.992 386.049 146.992C386.902 146.992 387.585 147.056 388.097 147.184C388.652 147.312 389.078 147.547 389.377 147.888C389.718 148.229 389.953 148.699 390.081 149.296C390.252 149.893 390.337 150.683 390.337 151.664C390.337 152.347 390.294 152.987 390.209 153.584C390.124 154.139 389.996 154.693 389.825 155.248H389.441C388.716 154.821 388.012 154.523 387.329 154.352C386.646 154.139 385.814 154.032 384.833 154.032C383.169 154.032 381.59 154.523 380.097 155.504C378.646 156.485 377.281 158.064 376.001 160.24C374.764 162.373 373.633 165.232 372.609 168.816V159.152ZM358.401 176.176H373.185C375.788 176.176 378.028 176.368 379.905 176.752C381.825 177.093 383.297 177.605 384.321 178.288C385.345 178.928 385.857 179.675 385.857 180.528C385.857 180.699 385.836 180.869 385.793 181.04C385.793 181.211 385.772 181.381 385.729 181.552C385.729 181.723 385.686 181.872 385.601 182H362.113C360.492 182 359.425 181.637 358.913 180.912C358.444 180.144 358.209 179.099 358.209 177.776C358.209 177.563 358.209 177.371 358.209 177.2C358.252 177.029 358.273 176.859 358.273 176.688C358.316 176.475 358.358 176.304 358.401 176.176ZM414.056 147.184C416.829 147.184 419.176 147.739 421.096 148.848C423.016 149.957 424.467 151.493 425.448 153.456C426.472 155.419 426.984 157.637 426.984 160.112V160.368C426.984 161.733 426.899 162.907 426.728 163.888C426.557 164.827 426.301 165.552 425.96 166.064C425.619 166.533 425.192 166.768 424.68 166.768H407.592C406.781 166.768 406.035 166.661 405.352 166.448C404.712 166.235 404.179 165.957 403.752 165.616L402.6 166.256V162.8H420.904C420.989 162.288 421.053 161.776 421.096 161.264C421.181 160.752 421.224 160.24 421.224 159.728C421.224 158.235 421.053 156.976 420.712 155.952C420.371 154.928 419.816 153.989 419.048 153.136C418.365 152.837 417.683 152.624 417 152.496C416.317 152.368 415.421 152.304 414.312 152.304C411.027 152.304 408.381 153.584 406.376 156.144C404.371 158.661 403.368 162.437 403.368 167.472V168.176C403.368 169.584 403.517 170.864 403.816 172.016C404.115 173.168 404.584 174.192 405.224 175.088C406.376 175.856 407.656 176.411 409.064 176.752C410.472 177.093 412.2 177.264 414.248 177.264C415.827 177.264 417.256 177.157 418.536 176.944C419.859 176.688 421.117 176.283 422.312 175.728C423.507 175.173 424.659 174.469 425.768 173.616H426.152C426.195 173.872 426.237 174.149 426.28 174.448C426.323 174.704 426.344 175.024 426.344 175.408C426.344 176.389 426.195 177.221 425.896 177.904C425.64 178.587 425.256 179.184 424.744 179.696C424.061 180.379 423.187 180.955 422.12 181.424C421.053 181.893 419.837 182.235 418.472 182.448C417.107 182.661 415.635 182.768 414.056 182.768C411.709 182.768 409.533 182.427 407.528 181.744C405.523 181.061 403.773 180.059 402.28 178.736C400.787 177.413 399.613 175.771 398.76 173.808C397.907 171.845 397.48 169.605 397.48 167.088V166.384C397.48 163.269 397.907 160.517 398.76 158.128C399.613 155.739 400.787 153.733 402.28 152.112C403.816 150.491 405.587 149.275 407.592 148.464C409.597 147.611 411.752 147.184 414.056 147.184ZM467.791 182C467.62 182.043 467.407 182.085 467.151 182.128C466.938 182.171 466.703 182.192 466.447 182.192C466.234 182.235 465.978 182.256 465.679 182.256C464.655 182.256 463.78 182.043 463.055 181.616C462.33 181.189 461.775 180.4 461.391 179.248C461.05 178.053 460.879 176.325 460.879 174.064C460.879 172.955 460.9 171.824 460.943 170.672C460.986 169.52 461.028 168.368 461.071 167.216C461.114 166.021 461.156 164.805 461.199 163.568C461.284 162.331 461.37 161.029 461.455 159.664C461.583 158.299 461.711 156.848 461.839 155.312C461.626 154.629 461.327 154.117 460.943 153.776C460.602 153.435 460.09 153.264 459.407 153.264C458.468 153.264 457.53 153.627 456.591 154.352C455.695 155.035 454.82 156.037 453.967 157.36C453.156 158.64 452.431 160.133 451.791 161.84V153.84H453.007C453.69 152.56 454.436 151.429 455.247 150.448C456.1 149.424 457.018 148.635 457.999 148.08C458.98 147.525 459.962 147.248 460.943 147.248C461.796 147.248 462.586 147.483 463.311 147.952C464.036 148.379 464.655 148.955 465.167 149.68C465.722 150.363 466.127 151.131 466.383 151.984C466.682 152.795 466.831 153.627 466.831 154.48C466.831 156.059 466.831 157.616 466.831 159.152C466.831 160.688 466.831 162.245 466.831 163.824C466.831 165.36 466.831 166.917 466.831 168.496C466.831 170.032 466.831 171.568 466.831 173.104C466.831 174.853 466.895 176.389 467.023 177.712C467.151 178.992 467.407 180.421 467.791 182ZM452.687 182C452.602 182.043 452.495 182.064 452.367 182.064C452.282 182.107 452.175 182.128 452.047 182.128C451.919 182.171 451.791 182.192 451.663 182.192C450.938 182.192 450.319 182 449.807 181.616C449.295 181.189 448.89 180.464 448.591 179.44C448.335 178.373 448.207 176.901 448.207 175.024C448.207 173.829 448.207 172.656 448.207 171.504C448.25 170.352 448.292 169.179 448.335 167.984C448.378 166.789 448.42 165.531 448.463 164.208C448.548 162.885 448.634 161.499 448.719 160.048C448.847 158.597 448.975 157.04 449.103 155.376C448.932 154.864 448.719 154.459 448.463 154.16C448.25 153.819 447.972 153.584 447.631 153.456C447.332 153.328 446.948 153.264 446.479 153.264C445.626 153.264 444.794 153.541 443.983 154.096C443.215 154.651 442.426 155.589 441.615 156.912C440.847 158.192 440.015 159.963 439.119 162.224L438.991 154.032H440.207C440.804 152.539 441.466 151.301 442.191 150.32C442.959 149.339 443.77 148.592 444.623 148.08C445.519 147.568 446.436 147.312 447.375 147.312C448.271 147.312 449.039 147.547 449.679 148.016C450.362 148.485 450.916 149.083 451.343 149.808C451.77 150.533 452.09 151.301 452.303 152.112C452.559 152.88 452.687 153.584 452.687 154.224C452.687 156.528 452.687 158.832 452.687 161.136C452.687 163.44 452.687 165.765 452.687 168.112C452.687 170.416 452.687 172.741 452.687 175.088C452.687 177.392 452.687 179.696 452.687 182ZM439.887 182.192C439.759 182.192 439.61 182.213 439.439 182.256C439.311 182.299 439.162 182.32 438.991 182.32C438.863 182.32 438.714 182.32 438.543 182.32C438.372 182.32 438.18 182.32 437.967 182.32C437.412 182.32 436.9 182.299 436.431 182.256C435.962 182.213 435.578 182.107 435.279 181.936C434.98 181.723 434.746 181.467 434.575 181.168C434.404 180.827 434.319 180.379 434.319 179.824C434.319 176.923 434.319 174.043 434.319 171.184C434.319 168.283 434.319 165.403 434.319 162.544C434.319 159.643 434.319 156.741 434.319 153.84C434.319 152.475 434.255 151.387 434.127 150.576C434.042 149.723 433.85 148.805 433.551 147.824C433.679 147.781 433.807 147.739 433.935 147.696C434.106 147.653 434.255 147.632 434.383 147.632C434.554 147.589 434.703 147.568 434.831 147.568C435.002 147.568 435.151 147.568 435.279 147.568C435.876 147.568 436.431 147.717 436.943 148.016C437.498 148.272 437.988 148.656 438.415 149.168C438.884 149.68 439.247 150.341 439.503 151.152C439.759 151.92 439.887 152.859 439.887 153.968C439.887 157.083 439.887 160.219 439.887 163.376C439.887 166.533 439.887 169.669 439.887 172.784C439.887 175.899 439.887 179.035 439.887 182.192ZM484.982 194.416C484.043 194.416 483.233 194.309 482.55 194.096C481.91 193.883 481.249 193.499 480.566 192.944C481.462 191.365 482.209 189.808 482.806 188.272C483.403 186.736 483.894 185.115 484.278 183.408C484.662 181.744 484.939 179.909 485.11 177.904C485.281 175.856 485.366 173.573 485.366 171.056C485.793 170.928 486.177 170.821 486.518 170.736C486.859 170.651 487.201 170.608 487.542 170.608C487.883 170.565 488.246 170.544 488.63 170.544C489.697 170.544 490.593 170.672 491.318 170.928C492.043 171.141 492.598 171.525 492.982 172.08C493.366 172.635 493.558 173.381 493.558 174.32C493.558 176.325 493.366 178.288 492.982 180.208C492.641 182.085 492.15 183.877 491.51 185.584C490.913 187.291 490.209 188.827 489.398 190.192C488.63 191.557 487.819 192.709 486.966 193.648C486.71 193.904 486.433 194.096 486.134 194.224C485.835 194.352 485.451 194.416 484.982 194.416ZM563.908 136.944C564.036 136.901 564.185 136.88 564.356 136.88C564.527 136.837 564.697 136.795 564.868 136.752C565.081 136.709 565.295 136.667 565.508 136.624C565.721 136.581 565.935 136.56 566.148 136.56C566.361 136.56 566.596 136.56 566.852 136.56C567.748 136.56 568.495 136.645 569.092 136.816C569.689 136.944 570.137 137.179 570.436 137.52C570.735 137.819 570.884 138.245 570.884 138.8C570.884 139.611 570.884 140.827 570.884 142.448C570.884 144.027 570.884 145.883 570.884 148.016C570.884 150.149 570.884 152.411 570.884 154.8C570.884 157.147 570.884 159.515 570.884 161.904C570.884 164.293 570.884 166.555 570.884 168.688C570.884 170.779 570.884 172.635 570.884 174.256C570.884 175.835 570.884 177.029 570.884 177.84H566.532V175.792C566.191 175.493 565.913 175.109 565.7 174.64C565.487 174.171 565.316 173.637 565.188 173.04C565.06 172.4 564.996 171.717 564.996 170.992C564.996 170.523 564.996 169.733 564.996 168.624C564.996 167.472 564.996 166.128 564.996 164.592C564.996 163.056 564.996 161.413 564.996 159.664C564.996 157.872 564.996 156.08 564.996 154.288C564.996 152.453 564.996 150.725 564.996 149.104C564.996 147.483 564.996 146.032 564.996 144.752C564.996 143.472 564.996 142.491 564.996 141.808L566.532 143.856H563.268L565.38 141.872C564.996 142.981 564.527 144.048 563.972 145.072C563.417 146.053 562.777 146.992 562.052 147.888C561.369 148.741 560.58 149.595 559.684 150.448C558.916 151.173 558.212 151.749 557.572 152.176C556.975 152.603 556.399 152.923 555.844 153.136C555.332 153.307 554.841 153.392 554.372 153.392C553.903 153.392 553.497 153.243 553.156 152.944C552.857 152.645 552.601 152.155 552.388 151.472C552.217 150.789 552.132 149.893 552.132 148.784V147.952C553.497 147.312 554.777 146.565 555.972 145.712C557.167 144.859 558.34 143.856 559.492 142.704C560.132 142.064 560.708 141.403 561.22 140.72C561.775 140.037 562.265 139.376 562.692 138.736C563.161 138.096 563.567 137.499 563.908 136.944ZM551.556 176.176C551.684 176.176 552.004 176.176 552.516 176.176C553.071 176.176 553.753 176.176 554.564 176.176C555.417 176.176 556.356 176.176 557.38 176.176C558.404 176.176 559.492 176.176 560.644 176.176C561.796 176.176 562.927 176.176 564.036 176.176C565.145 176.176 566.191 176.176 567.172 176.176C568.196 176.176 569.092 176.176 569.86 176.176C573.7 176.176 576.708 176.603 578.884 177.456C581.06 178.267 582.148 179.291 582.148 180.528C582.148 180.699 582.148 180.848 582.148 180.976C582.148 181.104 582.127 181.232 582.084 181.36C582.084 181.445 582.084 181.552 582.084 181.68C582.084 181.765 582.063 181.872 582.02 182C581.892 182 581.38 182 580.484 182C579.588 182 578.415 182 576.964 182C575.513 182 573.935 182 572.228 182C570.521 182 568.772 182 566.98 182C565.188 182 563.503 182 561.924 182C560.345 182 558.98 182 557.828 182C556.719 182 555.951 182 555.524 182C554.756 182 554.137 181.957 553.668 181.872C553.199 181.744 552.815 181.531 552.516 181.232C552.132 180.848 551.855 180.357 551.684 179.76C551.556 179.163 551.492 178.501 551.492 177.776C551.492 177.648 551.492 177.52 551.492 177.392C551.492 177.264 551.492 177.157 551.492 177.072C551.492 176.944 551.492 176.837 551.492 176.752C551.492 176.624 551.492 176.517 551.492 176.432C551.535 176.347 551.556 176.261 551.556 176.176ZM604.267 135.92C607.211 135.92 609.792 136.816 612.011 138.608C614.272 140.4 616.022 142.981 617.259 146.352C618.496 149.723 619.115 153.797 619.115 158.576V161.52C619.115 166.085 618.454 170.011 617.131 173.296C615.808 176.539 613.995 179.013 611.691 180.72C609.387 182.427 606.784 183.28 603.883 183.28C601.707 183.28 599.702 182.811 597.867 181.872C596.075 180.891 594.518 179.483 593.195 177.648C591.872 175.813 590.848 173.595 590.123 170.992C589.398 168.347 589.035 165.339 589.035 161.968V159.024C589.035 154.117 589.696 149.957 591.019 146.544C592.342 143.088 594.155 140.464 596.459 138.672C598.806 136.837 601.408 135.92 604.267 135.92ZM605.035 141.744C602.816 141.744 600.939 142.533 599.403 144.112C597.91 145.691 596.779 147.845 596.011 150.576C595.243 153.307 594.859 156.4 594.859 159.856V162.672C594.859 164.464 594.987 166.299 595.243 168.176C595.499 170.053 595.99 171.781 596.715 173.36C597.483 174.939 598.571 176.219 599.979 177.2C600.406 177.285 600.875 177.349 601.387 177.392C601.942 177.435 602.518 177.456 603.115 177.456C605.334 177.456 607.19 176.731 608.683 175.28C610.219 173.787 611.371 171.781 612.139 169.264C612.907 166.747 613.291 163.888 613.291 160.688V157.872C613.291 155.824 613.142 153.797 612.843 151.792C612.544 149.744 612.011 147.867 611.243 146.16C610.475 144.453 609.366 143.067 607.915 142C607.531 141.872 607.083 141.808 606.571 141.808C606.102 141.765 605.59 141.744 605.035 141.744ZM613.547 145.52L613.995 152.432H611.179L612.907 150.512C612.566 151.749 612.16 152.859 611.691 153.84C611.264 154.779 610.752 155.675 610.155 156.528C609.558 157.381 608.811 158.32 607.915 159.344C606.72 160.709 605.398 162.117 603.947 163.568C602.539 165.019 601.003 166.448 599.339 167.856C597.675 169.221 595.904 170.565 594.027 171.888L593.579 166.896H596.907L594.923 168.688C595.264 167.835 595.627 167.088 596.011 166.448C596.395 165.808 596.886 165.168 597.483 164.528C598.123 163.845 598.934 163.035 599.915 162.096C601.494 160.603 603.435 158.512 605.739 155.824C608.086 153.136 610.688 149.701 613.547 145.52ZM629.202 147.568C630.098 147.568 630.845 147.675 631.442 147.888C632.082 148.059 632.573 148.357 632.914 148.784C633.298 149.168 633.511 149.723 633.554 150.448C633.895 155.099 634.386 159.131 635.026 162.544C635.666 165.915 636.519 168.859 637.586 171.376C638.695 173.851 640.125 176.069 641.874 178.032H642.322C643.517 176.709 644.583 175.301 645.522 173.808C646.461 172.315 647.271 170.715 647.954 169.008C648.637 167.259 649.191 165.339 649.618 163.248C650.087 161.115 650.471 158.789 650.77 156.272C651.069 153.755 651.282 150.96 651.41 147.888C651.751 147.76 652.114 147.675 652.498 147.632C652.925 147.589 653.33 147.568 653.714 147.568C654.653 147.568 655.399 147.717 655.954 148.016C656.551 148.315 656.978 148.763 657.234 149.36C657.49 149.915 657.575 150.619 657.49 151.472C657.149 155.269 656.637 158.747 655.954 161.904C655.314 165.061 654.482 167.92 653.458 170.48C652.434 173.04 651.218 175.323 649.81 177.328C648.402 179.291 646.781 180.976 644.946 182.384C644.519 182.469 644.029 182.533 643.474 182.576C642.962 182.619 642.429 182.64 641.874 182.64C641.277 182.64 640.722 182.576 640.21 182.448C639.741 182.32 639.271 182.107 638.802 181.808C638.375 181.467 637.927 181.019 637.458 180.464C636.221 179.184 635.133 177.776 634.194 176.24C633.255 174.661 632.402 172.933 631.634 171.056C630.909 169.136 630.247 167.024 629.65 164.72C629.095 162.416 628.605 159.877 628.178 157.104C627.751 154.288 627.367 151.216 627.026 147.888C627.325 147.76 627.666 147.675 628.05 147.632C628.477 147.589 628.861 147.568 629.202 147.568ZM678.521 153.84H679.225C680.121 153.84 680.846 153.947 681.401 154.16C681.956 154.331 682.361 154.608 682.617 154.992C682.916 155.376 683.065 155.824 683.065 156.336C683.108 158.555 683.214 160.603 683.385 162.48C683.556 164.357 683.812 166.128 684.153 167.792C684.494 169.456 684.921 171.077 685.433 172.656C685.988 174.192 686.649 175.707 687.417 177.2H687.801C688.398 175.749 688.91 174.235 689.337 172.656C689.764 171.077 690.084 169.2 690.297 167.024C690.553 164.848 690.745 162.181 690.873 159.024C691.001 155.867 691.065 152.005 691.065 147.44C691.193 147.397 691.321 147.376 691.449 147.376C691.577 147.333 691.705 147.312 691.833 147.312C692.004 147.269 692.174 147.248 692.345 147.248C693.198 147.248 693.945 147.376 694.585 147.632C695.268 147.845 695.801 148.187 696.185 148.656C696.612 149.125 696.825 149.723 696.825 150.448C696.825 154.16 696.718 157.637 696.505 160.88C696.292 164.123 695.95 167.109 695.481 169.84C695.012 172.571 694.372 174.981 693.561 177.072C692.75 179.163 691.726 180.912 690.489 182.32C690.318 182.363 690.148 182.405 689.977 182.448C689.806 182.491 689.636 182.512 689.465 182.512C689.337 182.555 689.166 182.576 688.953 182.576C688.782 182.619 688.612 182.64 688.441 182.64C687.886 182.64 687.374 182.533 686.905 182.32C686.478 182.149 686.03 181.765 685.561 181.168C685.134 180.571 684.729 179.931 684.345 179.248C684.004 178.523 683.662 177.755 683.321 176.944C682.98 176.133 682.681 175.28 682.425 174.384C682.169 173.445 681.913 172.464 681.657 171.44C681.444 170.416 681.23 169.349 681.017 168.24H680.633C680.462 169.136 680.27 170.032 680.057 170.928C679.886 171.781 679.673 172.613 679.417 173.424C679.161 174.235 678.884 175.024 678.585 175.792C678.329 176.56 678.03 177.307 677.689 178.032C677.348 178.757 676.985 179.483 676.601 180.208C676.26 180.891 675.876 181.552 675.449 182.192C675.236 182.277 675.001 182.363 674.745 182.448C674.532 182.533 674.276 182.576 673.977 182.576C673.721 182.619 673.444 182.64 673.145 182.64C672.505 182.64 671.972 182.555 671.545 182.384C671.161 182.213 670.67 181.787 670.073 181.104C669.476 180.379 668.9 179.419 668.345 178.224C667.833 177.029 667.364 175.557 666.937 173.808C666.51 172.059 666.126 169.947 665.785 167.472C665.444 164.997 665.188 162.117 665.017 158.832C664.846 155.504 664.761 151.707 664.761 147.44C664.932 147.355 665.081 147.312 665.209 147.312C665.38 147.312 665.55 147.312 665.721 147.312C665.934 147.269 666.126 147.248 666.297 147.248C667.236 147.248 668.004 147.376 668.601 147.632C669.241 147.845 669.71 148.187 670.009 148.656C670.35 149.083 670.521 149.616 670.521 150.256C670.521 154.139 670.585 157.509 670.713 160.368C670.884 163.227 671.097 165.701 671.353 167.792C671.609 169.84 671.929 171.632 672.313 173.168C672.74 174.704 673.23 176.069 673.785 177.264H674.233C675.044 175.728 675.726 174.107 676.281 172.4C676.836 170.693 677.262 168.88 677.561 166.96C677.902 165.04 678.137 163.013 678.265 160.88C678.436 158.704 678.521 156.357 678.521 153.84ZM715.232 194.416C714.293 194.416 713.483 194.309 712.8 194.096C712.16 193.883 711.499 193.499 710.816 192.944C711.712 191.365 712.459 189.808 713.056 188.272C713.653 186.736 714.144 185.115 714.528 183.408C714.912 181.744 715.189 179.909 715.36 177.904C715.531 175.856 715.616 173.573 715.616 171.056C716.043 170.928 716.427 170.821 716.768 170.736C717.109 170.651 717.451 170.608 717.792 170.608C718.133 170.565 718.496 170.544 718.88 170.544C719.947 170.544 720.843 170.672 721.568 170.928C722.293 171.141 722.848 171.525 723.232 172.08C723.616 172.635 723.808 173.381 723.808 174.32C723.808 176.325 723.616 178.288 723.232 180.208C722.891 182.085 722.4 183.877 721.76 185.584C721.163 187.291 720.459 188.827 719.648 190.192C718.88 191.557 718.069 192.709 717.216 193.648C716.96 193.904 716.683 194.096 716.384 194.224C716.085 194.352 715.701 194.416 715.232 194.416ZM802.414 136.304C802.926 136.304 803.395 136.347 803.822 136.432C804.291 136.475 804.718 136.539 805.102 136.624C805.486 136.709 805.849 136.837 806.19 137.008C806.531 137.136 806.83 137.285 807.086 137.456C807.385 137.584 807.641 137.776 807.854 138.032V138.416C806.062 139.568 804.249 140.997 802.414 142.704C800.579 144.411 798.766 146.288 796.974 148.336C795.225 150.384 793.561 152.56 791.982 154.864C790.403 157.168 788.953 159.515 787.63 161.904C786.307 164.251 785.198 166.597 784.302 168.944L785.006 165.808V168.496L784.046 167.92C785.369 167.536 786.606 167.259 787.758 167.088C788.91 166.875 790.083 166.747 791.278 166.704C792.515 166.619 793.859 166.576 795.31 166.576H810.414C811.097 166.576 811.63 166.747 812.014 167.088C812.398 167.387 812.654 167.813 812.782 168.368C812.953 168.923 813.038 169.563 813.038 170.288C813.038 170.459 813.038 170.629 813.038 170.8C813.038 170.971 813.017 171.12 812.974 171.248C812.974 171.376 812.974 171.504 812.974 171.632C812.974 171.76 812.953 171.888 812.91 172.016C812.867 172.144 812.846 172.272 812.846 172.4H782.894C782.211 172.4 781.635 172.208 781.166 171.824C780.739 171.397 780.398 170.843 780.142 170.16C779.886 169.435 779.758 168.603 779.758 167.664V167.088C779.758 166.32 779.907 165.424 780.206 164.4C780.505 163.333 780.931 162.181 781.486 160.944C782.041 159.707 782.702 158.405 783.47 157.04C784.281 155.632 785.134 154.224 786.03 152.816C786.969 151.365 787.971 149.915 789.038 148.464C790.105 147.013 791.214 145.605 792.366 144.24C793.561 142.832 794.734 141.509 795.886 140.272C797.038 139.077 797.955 138.224 798.638 137.712C799.363 137.157 800.003 136.795 800.558 136.624C801.155 136.411 801.774 136.304 802.414 136.304ZM803.118 156.848C803.161 156.848 803.182 156.848 803.182 156.848C803.225 156.848 803.267 156.848 803.31 156.848C803.395 156.848 803.438 156.848 803.438 156.848C803.481 156.848 803.523 156.848 803.566 156.848C804.419 156.848 805.145 156.976 805.742 157.232C806.339 157.445 806.787 157.765 807.086 158.192C807.427 158.576 807.598 159.024 807.598 159.536V175.728C807.598 176.453 807.598 177.115 807.598 177.712C807.641 178.309 807.683 178.885 807.726 179.44C807.769 179.952 807.833 180.443 807.918 180.912C808.003 181.339 808.089 181.787 808.174 182.256C808.046 182.299 807.918 182.32 807.79 182.32C807.662 182.363 807.513 182.405 807.342 182.448C807.214 182.491 807.065 182.512 806.894 182.512C806.766 182.555 806.617 182.576 806.446 182.576C806.318 182.576 806.169 182.576 805.998 182.576C804.377 182.576 803.225 182.235 802.542 181.552C801.859 180.869 801.518 179.845 801.518 178.48C801.518 178.053 801.518 177.52 801.518 176.88C801.518 176.197 801.518 175.515 801.518 174.832C801.518 174.107 801.518 173.403 801.518 172.72C801.518 171.995 801.518 171.333 801.518 170.736C801.518 170.096 801.518 169.605 801.518 169.264C801.518 168.624 801.561 167.728 801.646 166.576C801.731 165.424 801.838 164.208 801.966 162.928C802.137 161.605 802.307 160.389 802.478 159.28C802.691 158.171 802.905 157.36 803.118 156.848ZM828.629 176.752L829.141 175.856C828.842 175.472 828.565 175.024 828.309 174.512C828.096 174 827.925 173.424 827.797 172.784C827.712 172.101 827.669 171.355 827.669 170.544C827.669 168.581 827.669 166.619 827.669 164.656C827.669 162.651 827.669 160.667 827.669 158.704C827.669 156.699 827.669 154.693 827.669 152.688L827.349 152.432C825.728 153.115 824.384 153.648 823.317 154.032C822.25 154.373 821.504 154.544 821.077 154.544C820.437 154.544 819.882 154.224 819.413 153.584C818.944 152.901 818.709 151.941 818.709 150.704C818.709 150.192 818.752 149.701 818.837 149.232C818.922 148.72 819.008 148.293 819.093 147.952C819.562 147.909 820.053 147.867 820.565 147.824C821.12 147.739 821.653 147.675 822.165 147.632C822.677 147.589 823.168 147.547 823.637 147.504C824.149 147.461 824.618 147.44 825.045 147.44C825.514 147.397 825.984 147.376 826.453 147.376C826.922 147.333 827.328 147.312 827.669 147.312C828.608 147.312 829.418 147.419 830.101 147.632C830.784 147.845 831.338 148.229 831.765 148.784C832.234 149.296 832.597 150.021 832.853 150.96C833.109 151.856 833.28 153.008 833.365 154.416C833.493 155.824 833.557 157.531 833.557 159.536C833.557 161.029 833.557 162.523 833.557 164.016C833.557 165.509 833.557 167.003 833.557 168.496C833.557 169.989 833.557 171.483 833.557 172.976C833.557 174.469 833.557 175.963 833.557 177.456L828.629 176.752ZM833.109 159.152H833.941C835.306 155.099 837.077 152.069 839.253 150.064C841.472 148.016 843.904 146.992 846.549 146.992C847.402 146.992 848.085 147.056 848.597 147.184C849.152 147.312 849.578 147.547 849.877 147.888C850.218 148.229 850.453 148.699 850.581 149.296C850.752 149.893 850.837 150.683 850.837 151.664C850.837 152.347 850.794 152.987 850.709 153.584C850.624 154.139 850.496 154.693 850.325 155.248H849.941C849.216 154.821 848.512 154.523 847.829 154.352C847.146 154.139 846.314 154.032 845.333 154.032C843.669 154.032 842.09 154.523 840.597 155.504C839.146 156.485 837.781 158.064 836.501 160.24C835.264 162.373 834.133 165.232 833.109 168.816V159.152ZM818.901 176.176H833.685C836.288 176.176 838.528 176.368 840.405 176.752C842.325 177.093 843.797 177.605 844.821 178.288C845.845 178.928 846.357 179.675 846.357 180.528C846.357 180.699 846.336 180.869 846.293 181.04C846.293 181.211 846.272 181.381 846.229 181.552C846.229 181.723 846.186 181.872 846.101 182H822.613C820.992 182 819.925 181.637 819.413 180.912C818.944 180.144 818.709 179.099 818.709 177.776C818.709 177.563 818.709 177.371 818.709 177.2C818.752 177.029 818.773 176.859 818.773 176.688C818.816 176.475 818.858 176.304 818.901 176.176ZM874.556 147.184C877.329 147.184 879.676 147.739 881.596 148.848C883.516 149.957 884.967 151.493 885.948 153.456C886.972 155.419 887.484 157.637 887.484 160.112V160.368C887.484 161.733 887.399 162.907 887.228 163.888C887.057 164.827 886.801 165.552 886.46 166.064C886.119 166.533 885.692 166.768 885.18 166.768H868.092C867.281 166.768 866.535 166.661 865.852 166.448C865.212 166.235 864.679 165.957 864.252 165.616L863.1 166.256V162.8H881.404C881.489 162.288 881.553 161.776 881.596 161.264C881.681 160.752 881.724 160.24 881.724 159.728C881.724 158.235 881.553 156.976 881.212 155.952C880.871 154.928 880.316 153.989 879.548 153.136C878.865 152.837 878.183 152.624 877.5 152.496C876.817 152.368 875.921 152.304 874.812 152.304C871.527 152.304 868.881 153.584 866.876 156.144C864.871 158.661 863.868 162.437 863.868 167.472V168.176C863.868 169.584 864.017 170.864 864.316 172.016C864.615 173.168 865.084 174.192 865.724 175.088C866.876 175.856 868.156 176.411 869.564 176.752C870.972 177.093 872.7 177.264 874.748 177.264C876.327 177.264 877.756 177.157 879.036 176.944C880.359 176.688 881.617 176.283 882.812 175.728C884.007 175.173 885.159 174.469 886.268 173.616H886.652C886.695 173.872 886.737 174.149 886.78 174.448C886.823 174.704 886.844 175.024 886.844 175.408C886.844 176.389 886.695 177.221 886.396 177.904C886.14 178.587 885.756 179.184 885.244 179.696C884.561 180.379 883.687 180.955 882.62 181.424C881.553 181.893 880.337 182.235 878.972 182.448C877.607 182.661 876.135 182.768 874.556 182.768C872.209 182.768 870.033 182.427 868.028 181.744C866.023 181.061 864.273 180.059 862.78 178.736C861.287 177.413 860.113 175.771 859.26 173.808C858.407 171.845 857.98 169.605 857.98 167.088V166.384C857.98 163.269 858.407 160.517 859.26 158.128C860.113 155.739 861.287 153.733 862.78 152.112C864.316 150.491 866.087 149.275 868.092 148.464C870.097 147.611 872.252 147.184 874.556 147.184ZM928.291 182C928.12 182.043 927.907 182.085 927.651 182.128C927.438 182.171 927.203 182.192 926.947 182.192C926.734 182.235 926.478 182.256 926.179 182.256C925.155 182.256 924.28 182.043 923.555 181.616C922.83 181.189 922.275 180.4 921.891 179.248C921.55 178.053 921.379 176.325 921.379 174.064C921.379 172.955 921.4 171.824 921.443 170.672C921.486 169.52 921.528 168.368 921.571 167.216C921.614 166.021 921.656 164.805 921.699 163.568C921.784 162.331 921.87 161.029 921.955 159.664C922.083 158.299 922.211 156.848 922.339 155.312C922.126 154.629 921.827 154.117 921.443 153.776C921.102 153.435 920.59 153.264 919.907 153.264C918.968 153.264 918.03 153.627 917.091 154.352C916.195 155.035 915.32 156.037 914.467 157.36C913.656 158.64 912.931 160.133 912.291 161.84V153.84H913.507C914.19 152.56 914.936 151.429 915.747 150.448C916.6 149.424 917.518 148.635 918.499 148.08C919.48 147.525 920.462 147.248 921.443 147.248C922.296 147.248 923.086 147.483 923.811 147.952C924.536 148.379 925.155 148.955 925.667 149.68C926.222 150.363 926.627 151.131 926.883 151.984C927.182 152.795 927.331 153.627 927.331 154.48C927.331 156.059 927.331 157.616 927.331 159.152C927.331 160.688 927.331 162.245 927.331 163.824C927.331 165.36 927.331 166.917 927.331 168.496C927.331 170.032 927.331 171.568 927.331 173.104C927.331 174.853 927.395 176.389 927.523 177.712C927.651 178.992 927.907 180.421 928.291 182ZM913.187 182C913.102 182.043 912.995 182.064 912.867 182.064C912.782 182.107 912.675 182.128 912.547 182.128C912.419 182.171 912.291 182.192 912.163 182.192C911.438 182.192 910.819 182 910.307 181.616C909.795 181.189 909.39 180.464 909.091 179.44C908.835 178.373 908.707 176.901 908.707 175.024C908.707 173.829 908.707 172.656 908.707 171.504C908.75 170.352 908.792 169.179 908.835 167.984C908.878 166.789 908.92 165.531 908.963 164.208C909.048 162.885 909.134 161.499 909.219 160.048C909.347 158.597 909.475 157.04 909.603 155.376C909.432 154.864 909.219 154.459 908.963 154.16C908.75 153.819 908.472 153.584 908.131 153.456C907.832 153.328 907.448 153.264 906.979 153.264C906.126 153.264 905.294 153.541 904.483 154.096C903.715 154.651 902.926 155.589 902.115 156.912C901.347 158.192 900.515 159.963 899.619 162.224L899.491 154.032H900.707C901.304 152.539 901.966 151.301 902.691 150.32C903.459 149.339 904.27 148.592 905.123 148.08C906.019 147.568 906.936 147.312 907.875 147.312C908.771 147.312 909.539 147.547 910.179 148.016C910.862 148.485 911.416 149.083 911.843 149.808C912.27 150.533 912.59 151.301 912.803 152.112C913.059 152.88 913.187 153.584 913.187 154.224C913.187 156.528 913.187 158.832 913.187 161.136C913.187 163.44 913.187 165.765 913.187 168.112C913.187 170.416 913.187 172.741 913.187 175.088C913.187 177.392 913.187 179.696 913.187 182ZM900.387 182.192C900.259 182.192 900.11 182.213 899.939 182.256C899.811 182.299 899.662 182.32 899.491 182.32C899.363 182.32 899.214 182.32 899.043 182.32C898.872 182.32 898.68 182.32 898.467 182.32C897.912 182.32 897.4 182.299 896.931 182.256C896.462 182.213 896.078 182.107 895.779 181.936C895.48 181.723 895.246 181.467 895.075 181.168C894.904 180.827 894.819 180.379 894.819 179.824C894.819 176.923 894.819 174.043 894.819 171.184C894.819 168.283 894.819 165.403 894.819 162.544C894.819 159.643 894.819 156.741 894.819 153.84C894.819 152.475 894.755 151.387 894.627 150.576C894.542 149.723 894.35 148.805 894.051 147.824C894.179 147.781 894.307 147.739 894.435 147.696C894.606 147.653 894.755 147.632 894.883 147.632C895.054 147.589 895.203 147.568 895.331 147.568C895.502 147.568 895.651 147.568 895.779 147.568C896.376 147.568 896.931 147.717 897.443 148.016C897.998 148.272 898.488 148.656 898.915 149.168C899.384 149.68 899.747 150.341 900.003 151.152C900.259 151.92 900.387 152.859 900.387 153.968C900.387 157.083 900.387 160.219 900.387 163.376C900.387 166.533 900.387 169.669 900.387 172.784C900.387 175.899 900.387 179.035 900.387 182.192ZM944.778 191.216C944.181 191.856 943.583 192.304 942.986 192.56C942.389 192.859 941.749 193.008 941.066 193.008C940.469 193.008 939.914 192.944 939.402 192.816C938.933 192.731 938.506 192.581 938.122 192.368C937.738 192.155 937.375 191.92 937.034 191.664V191.344C939.722 188.827 941.941 186.075 943.69 183.088C945.482 180.101 946.805 176.923 947.658 173.552C948.554 170.181 949.002 166.683 949.002 163.056V162.672C949.002 159.003 948.554 155.504 947.658 152.176C946.762 148.805 945.418 145.627 943.626 142.64C941.877 139.653 939.679 136.923 937.034 134.448V134.128C937.375 133.829 937.738 133.595 938.122 133.424C938.506 133.211 938.933 133.04 939.402 132.912C939.914 132.784 940.469 132.72 941.066 132.72C941.749 132.72 942.389 132.869 942.986 133.168C943.583 133.424 944.181 133.872 944.778 134.512C947.082 136.816 949.045 139.44 950.666 142.384C952.287 145.328 953.503 148.507 954.314 151.92C955.167 155.333 955.594 158.917 955.594 162.672V163.056C955.594 166.811 955.167 170.416 954.314 173.872C953.503 177.285 952.287 180.443 950.666 183.344C949.045 186.288 947.082 188.912 944.778 191.216Z" fill="#333333"/>
<circle r="8" transform="matrix(-1 0 0 1 400 210)" fill="#F13B3B"/>
<g style="mix-blend-mode:luminosity">
<path d="M400 222C393.373 222 388 216.627 388 210C388 203.373 393.373 198 400 198C406.627 198 412 203.373 412 210C412 216.627 406.627 222 400 222ZM400 222V287" stroke="#666666" stroke-width="3" stroke-linecap="round" stroke-dasharray="6 6"/>
</g>
<circle r="8" transform="matrix(-1 0 0 1 869 214)" fill="#F13B3B"/>
<g style="mix-blend-mode:luminosity">
<path d="M869 226C862.373 226 857 220.627 857 214C857 207.373 862.373 202 869 202C875.627 202 881 207.373 881 214C881 220.627 875.627 226 869 226ZM869 226V284" stroke="#666666" stroke-width="3" stroke-linecap="round" stroke-dasharray="6 6"/>
</g>
<circle r="8" transform="matrix(-1 0 0 1 635 214)" fill="#F13B3B"/>
<g style="mix-blend-mode:luminosity">
<path d="M635 226C628.373 226 623 220.627 623 214C623 207.373 628.373 202 635 202C641.627 202 647 207.373 647 214C647 220.627 641.627 226 635 226ZM635 226V387.5" stroke="#666666" stroke-width="3" stroke-linecap="round" stroke-dasharray="6 6"/>
</g>
<path d="M290.884 327V311.096H293.252L293.06 316.568C293.636 314.605 294.468 313.155 295.556 312.216C296.666 311.277 297.892 310.808 299.236 310.808C300.623 310.808 301.743 311.224 302.596 312.056C303.45 312.888 303.972 314.147 304.164 315.832C304.762 314.147 305.615 312.888 306.724 312.056C307.855 311.224 309.071 310.808 310.372 310.808C311.994 310.808 313.231 311.373 314.084 312.504C314.959 313.635 315.386 315.267 315.364 317.4L315.3 327H312.964L313.028 317.688C313.071 314.552 311.994 312.984 309.796 312.984C309.071 312.984 308.378 313.208 307.716 313.656C307.055 314.104 306.458 314.861 305.924 315.928C305.412 316.973 305.007 318.403 304.708 320.216C304.41 322.029 304.26 324.291 304.26 327H301.956V317.688C301.956 316.109 301.7 314.936 301.188 314.168C300.698 313.379 299.898 312.984 298.788 312.984C298.042 312.984 297.338 313.208 296.676 313.656C296.015 314.104 295.418 314.861 294.884 315.928C294.372 316.973 293.956 318.403 293.636 320.216C293.338 322.029 293.188 324.291 293.188 327H290.884ZM322.282 311.096V327H319.978V311.096H322.282ZM321.194 307.48C320.682 307.48 320.287 307.32 320.01 307C319.733 306.68 319.594 306.307 319.594 305.88C319.594 305.453 319.733 305.08 320.01 304.76C320.309 304.44 320.703 304.28 321.194 304.28C321.685 304.28 322.069 304.44 322.346 304.76C322.645 305.08 322.794 305.453 322.794 305.88C322.794 306.307 322.645 306.68 322.346 307C322.069 307.32 321.685 307.48 321.194 307.48ZM327.072 327V311.096H329.44L329.248 316.536C329.781 314.68 330.603 313.261 331.712 312.28C332.843 311.299 334.165 310.808 335.68 310.808C337.301 310.808 338.549 311.373 339.424 312.504C340.299 313.635 340.736 315.267 340.736 317.4L340.672 327H338.336L338.4 317.688C338.4 316.131 338.133 314.957 337.6 314.168C337.088 313.379 336.256 312.984 335.104 312.984C334.016 312.984 333.035 313.421 332.16 314.296C331.307 315.149 330.624 316.6 330.112 318.648C329.621 320.696 329.376 323.48 329.376 327H327.072ZM347.657 311.096V327H345.353V311.096H347.657ZM346.569 307.48C346.057 307.48 345.662 307.32 345.385 307C345.108 306.68 344.969 306.307 344.969 305.88C344.969 305.453 345.108 305.08 345.385 304.76C345.684 304.44 346.078 304.28 346.569 304.28C347.06 304.28 347.444 304.44 347.721 304.76C348.02 305.08 348.169 305.453 348.169 305.88C348.169 306.307 348.02 306.68 347.721 307C347.444 307.32 347.06 307.48 346.569 307.48ZM352.447 327V311.096H354.815L354.623 316.568C355.199 314.605 356.031 313.155 357.119 312.216C358.228 311.277 359.455 310.808 360.799 310.808C362.186 310.808 363.306 311.224 364.159 312.056C365.012 312.888 365.535 314.147 365.727 315.832C366.324 314.147 367.178 312.888 368.287 312.056C369.418 311.224 370.634 310.808 371.935 310.808C373.556 310.808 374.794 311.373 375.647 312.504C376.522 313.635 376.948 315.267 376.927 317.4L376.863 327H374.527L374.591 317.688C374.634 314.552 373.556 312.984 371.359 312.984C370.634 312.984 369.94 313.208 369.279 313.656C368.618 314.104 368.02 314.861 367.487 315.928C366.975 316.973 366.57 318.403 366.271 320.216C365.972 322.029 365.823 324.291 365.823 327H363.519V317.688C363.519 316.109 363.263 314.936 362.751 314.168C362.26 313.379 361.46 312.984 360.351 312.984C359.604 312.984 358.9 313.208 358.239 313.656C357.578 314.104 356.98 314.861 356.447 315.928C355.935 316.973 355.519 318.403 355.199 320.216C354.9 322.029 354.751 324.291 354.751 327H352.447ZM386.309 327.256C384.709 327.256 383.482 326.701 382.629 325.592C381.775 324.483 381.349 322.947 381.349 320.984L381.445 311.096H383.781L383.685 320.696C383.663 322.083 383.909 323.16 384.421 323.928C384.933 324.696 385.743 325.08 386.853 325.08C387.941 325.08 388.901 324.643 389.733 323.768C390.565 322.893 391.215 321.443 391.685 319.416C392.175 317.368 392.431 314.595 392.453 311.096H394.693V327H392.325L392.517 321.784C391.919 323.661 391.077 325.048 389.989 325.944C388.901 326.819 387.674 327.256 386.309 327.256ZM399.478 327V311.096H401.846L401.654 316.568C402.23 314.605 403.062 313.155 404.15 312.216C405.259 311.277 406.486 310.808 407.83 310.808C409.217 310.808 410.337 311.224 411.19 312.056C412.043 312.888 412.566 314.147 412.758 315.832C413.355 314.147 414.209 312.888 415.318 312.056C416.449 311.224 417.665 310.808 418.966 310.808C420.587 310.808 421.825 311.373 422.678 312.504C423.553 313.635 423.979 315.267 423.958 317.4L423.894 327H421.558L421.622 317.688C421.665 314.552 420.587 312.984 418.39 312.984C417.665 312.984 416.971 313.208 416.31 313.656C415.649 314.104 415.051 314.861 414.518 315.928C414.006 316.973 413.601 318.403 413.302 320.216C413.003 322.029 412.854 324.291 412.854 327H410.55V317.688C410.55 316.109 410.294 314.936 409.782 314.168C409.291 313.379 408.491 312.984 407.382 312.984C406.635 312.984 405.931 313.208 405.27 313.656C404.609 314.104 404.011 314.861 403.478 315.928C402.966 316.973 402.55 318.403 402.23 320.216C401.931 322.029 401.782 324.291 401.782 327H399.478ZM446.797 311.096H449.133L442.925 327H439.661L434.509 311.096H437.005L441.421 325.112L446.797 311.096ZM464.735 311.096V327H462.367L462.463 323.256C461.866 324.493 461.066 325.475 460.063 326.2C459.06 326.904 457.919 327.256 456.639 327.256C455.295 327.256 454.164 326.947 453.247 326.328C452.33 325.688 451.626 324.813 451.135 323.704C450.644 322.573 450.399 321.272 450.399 319.8C450.399 318.029 450.719 316.472 451.359 315.128C451.999 313.763 452.895 312.707 454.047 311.96C455.199 311.192 456.532 310.808 458.047 310.808C459.114 310.808 460.052 311.053 460.863 311.544C461.674 312.035 462.271 312.664 462.655 313.432L462.975 311.096H464.735ZM458.111 312.92C456.511 312.92 455.231 313.528 454.271 314.744C453.311 315.96 452.831 317.581 452.831 319.608C452.831 321.336 453.194 322.691 453.919 323.672C454.666 324.632 455.679 325.112 456.959 325.112C458.004 325.112 458.943 324.803 459.775 324.184C460.607 323.565 461.258 322.712 461.727 321.624C462.196 320.536 462.431 319.288 462.431 317.88C462.431 316.344 462.047 315.139 461.279 314.264C460.511 313.368 459.455 312.92 458.111 312.92ZM473.445 327.256C472.122 327.256 471.141 326.893 470.501 326.168C469.861 325.443 469.541 324.483 469.541 323.288V303.32H471.877V323C471.877 323.704 472.026 324.237 472.325 324.6C472.623 324.963 473.114 325.144 473.797 325.144C474.117 325.144 474.426 325.101 474.725 325.016C475.023 324.909 475.258 324.803 475.429 324.696L476.069 326.456C475.77 326.712 475.375 326.904 474.885 327.032C474.415 327.181 473.935 327.256 473.445 327.256ZM482.621 327.256C481.021 327.256 479.794 326.701 478.941 325.592C478.088 324.483 477.661 322.947 477.661 320.984L477.757 311.096H480.093L479.997 320.696C479.976 322.083 480.221 323.16 480.733 323.928C481.245 324.696 482.056 325.08 483.165 325.08C484.253 325.08 485.213 324.643 486.045 323.768C486.877 322.893 487.528 321.443 487.997 319.416C488.488 317.368 488.744 314.595 488.765 311.096H491.005V327H488.637L488.829 321.784C488.232 323.661 487.389 325.048 486.301 325.944C485.213 326.819 483.986 327.256 482.621 327.256ZM502.959 327.256C500.505 327.256 498.575 326.552 497.167 325.144C495.78 323.736 495.087 321.773 495.087 319.256C495.087 317.613 495.417 316.152 496.079 314.872C496.74 313.592 497.636 312.6 498.767 311.896C499.919 311.171 501.22 310.808 502.671 310.808C504.847 310.808 506.521 311.565 507.695 313.08C508.889 314.595 509.316 316.856 508.975 319.864H497.487C497.551 321.571 498.063 322.872 499.023 323.768C500.004 324.664 501.369 325.112 503.119 325.112C503.972 325.112 504.793 324.931 505.583 324.568C506.372 324.184 507.044 323.597 507.599 322.808L509.071 324.152C507.641 326.221 505.604 327.256 502.959 327.256ZM502.703 312.696C501.721 312.696 500.857 312.931 500.111 313.4C499.385 313.869 498.799 314.509 498.351 315.32C497.903 316.109 497.625 316.995 497.519 317.976H506.927C507.012 316.12 506.649 314.776 505.839 313.944C505.028 313.112 503.983 312.696 502.703 312.696Z" fill="#333333"/>
<path d="M464.978 427.4V405.096H467.346L467.25 408.808C467.826 407.571 468.615 406.6 469.618 405.896C470.621 405.171 471.773 404.808 473.074 404.808C474.418 404.808 475.549 405.128 476.466 405.768C477.405 406.387 478.109 407.261 478.578 408.392C479.069 409.501 479.314 410.781 479.314 412.232C479.314 414.003 478.994 415.571 478.354 416.936C477.714 418.28 476.818 419.336 475.666 420.104C474.514 420.872 473.181 421.256 471.666 421.256C470.685 421.256 469.81 421.043 469.042 420.616C468.274 420.189 467.687 419.624 467.282 418.92L467.314 421V427.4H464.978ZM471.602 419.112C473.202 419.112 474.482 418.504 475.442 417.288C476.402 416.051 476.882 414.419 476.882 412.392C476.882 410.685 476.509 409.352 475.762 408.392C475.037 407.411 474.034 406.92 472.754 406.92C471.709 406.92 470.77 407.229 469.938 407.848C469.127 408.467 468.477 409.32 467.986 410.408C467.517 411.496 467.282 412.733 467.282 414.12C467.282 415.677 467.666 416.904 468.434 417.8C469.223 418.675 470.279 419.112 471.602 419.112ZM492.44 407.304C492.226 407.24 492.013 407.197 491.8 407.176C491.586 407.155 491.352 407.144 491.096 407.144C489.24 407.144 487.885 408.243 487.032 410.44C486.178 412.616 485.752 416.136 485.752 421H483.448V410.792L483.416 405.096H485.752L485.592 410.76C486.104 408.605 486.872 407.08 487.896 406.184C488.92 405.267 490.018 404.808 491.192 404.808C491.533 404.808 491.832 404.829 492.088 404.872C492.365 404.893 492.6 404.947 492.792 405.032L492.44 407.304ZM501.615 421.256C499.162 421.256 497.231 420.552 495.823 419.144C494.436 417.736 493.743 415.773 493.743 413.256C493.743 411.613 494.074 410.152 494.735 408.872C495.396 407.592 496.292 406.6 497.423 405.896C498.575 405.171 499.876 404.808 501.327 404.808C503.503 404.808 505.178 405.565 506.351 407.08C507.546 408.595 507.972 410.856 507.631 413.864H496.143C496.207 415.571 496.719 416.872 497.679 417.768C498.66 418.664 500.026 419.112 501.775 419.112C502.628 419.112 503.45 418.931 504.239 418.568C505.028 418.184 505.7 417.597 506.255 416.808L507.727 418.152C506.298 420.221 504.26 421.256 501.615 421.256ZM501.359 406.696C500.378 406.696 499.514 406.931 498.767 407.4C498.042 407.869 497.455 408.509 497.007 409.32C496.559 410.109 496.282 410.995 496.175 411.976H505.583C505.668 410.12 505.306 408.776 504.495 407.944C503.684 407.112 502.639 406.696 501.359 406.696ZM512.244 421V407.08H509.044V405.096H512.244V403.624C512.244 401.576 512.777 399.965 513.844 398.792C514.932 397.597 516.361 397 518.132 397C519.604 397 520.756 397.363 521.588 398.088C522.441 398.813 522.932 399.837 523.06 401.16L521.076 401.416C520.884 399.816 519.892 399.016 518.1 399.016C516.991 399.016 516.116 399.389 515.476 400.136C514.836 400.883 514.516 401.96 514.516 403.368V405.096H519.988V407.08H514.548V421H512.244ZM528.334 421.256C525.88 421.256 523.95 420.552 522.542 419.144C521.155 417.736 520.462 415.773 520.462 413.256C520.462 411.613 520.792 410.152 521.454 408.872C522.115 407.592 523.011 406.6 524.142 405.896C525.294 405.171 526.595 404.808 528.046 404.808C530.222 404.808 531.896 405.565 533.07 407.08C534.264 408.595 534.691 410.856 534.35 413.864H522.862C522.926 415.571 523.438 416.872 524.398 417.768C525.379 418.664 526.744 419.112 528.494 419.112C529.347 419.112 530.168 418.931 530.958 418.568C531.747 418.184 532.419 417.597 532.974 416.808L534.446 418.152C533.016 420.221 530.979 421.256 528.334 421.256ZM528.078 406.696C527.096 406.696 526.232 406.931 525.486 407.4C524.76 407.869 524.174 408.509 523.726 409.32C523.278 410.109 523 410.995 522.894 411.976H532.302C532.387 410.12 532.024 408.776 531.214 407.944C530.403 407.112 529.358 406.696 528.078 406.696ZM547.315 407.304C547.101 407.24 546.888 407.197 546.675 407.176C546.461 407.155 546.227 407.144 545.971 407.144C544.115 407.144 542.76 408.243 541.907 410.44C541.053 412.616 540.627 416.136 540.627 421H538.323V410.792L538.291 405.096H540.627L540.467 410.76C540.979 408.605 541.747 407.08 542.771 406.184C543.795 405.267 544.893 404.808 546.067 404.808C546.408 404.808 546.707 404.829 546.963 404.872C547.24 404.893 547.475 404.947 547.667 405.032L547.315 407.304ZM559.346 407.304C559.133 407.24 558.919 407.197 558.706 407.176C558.493 407.155 558.258 407.144 558.002 407.144C556.146 407.144 554.791 408.243 553.938 410.44C553.085 412.616 552.658 416.136 552.658 421H550.354V410.792L550.322 405.096H552.658L552.498 410.76C553.01 408.605 553.778 407.08 554.802 406.184C555.826 405.267 556.925 404.808 558.098 404.808C558.439 404.808 558.738 404.829 558.994 404.872C559.271 404.893 559.506 404.947 559.698 405.032L559.346 407.304ZM568.521 421.256C566.068 421.256 564.137 420.552 562.729 419.144C561.342 417.736 560.649 415.773 560.649 413.256C560.649 411.613 560.98 410.152 561.641 408.872C562.302 407.592 563.198 406.6 564.329 405.896C565.481 405.171 566.782 404.808 568.233 404.808C570.409 404.808 572.084 405.565 573.257 407.08C574.452 408.595 574.878 410.856 574.537 413.864H563.049C563.113 415.571 563.625 416.872 564.585 417.768C565.566 418.664 566.932 419.112 568.681 419.112C569.534 419.112 570.356 418.931 571.145 418.568C571.934 418.184 572.606 417.597 573.161 416.808L574.633 418.152C573.204 420.221 571.166 421.256 568.521 421.256ZM568.265 406.696C567.284 406.696 566.42 406.931 565.673 407.4C564.948 407.869 564.361 408.509 563.913 409.32C563.465 410.109 563.188 410.995 563.081 411.976H572.489C572.574 410.12 572.212 408.776 571.401 407.944C570.59 407.112 569.545 406.696 568.265 406.696ZM592.11 397.32V421H589.742L589.838 417.256C589.241 418.493 588.441 419.475 587.438 420.2C586.435 420.904 585.294 421.256 584.014 421.256C582.67 421.256 581.539 420.947 580.622 420.328C579.705 419.688 579.001 418.813 578.51 417.704C578.019 416.573 577.774 415.272 577.774 413.8C577.774 412.029 578.094 410.472 578.734 409.128C579.374 407.763 580.27 406.707 581.422 405.96C582.574 405.192 583.907 404.808 585.422 404.808C586.382 404.808 587.246 405.011 588.014 405.416C588.803 405.821 589.411 406.376 589.838 407.08L589.774 405.096V397.32H592.11ZM585.486 406.92C583.886 406.92 582.606 407.528 581.646 408.744C580.686 409.96 580.206 411.581 580.206 413.608C580.206 415.336 580.569 416.691 581.294 417.672C582.041 418.632 583.054 419.112 584.334 419.112C585.379 419.112 586.318 418.803 587.15 418.184C587.982 417.565 588.633 416.712 589.102 415.624C589.571 414.536 589.806 413.288 589.806 411.88C589.806 410.344 589.422 409.139 588.654 408.264C587.886 407.368 586.83 406.92 585.486 406.92ZM610.757 427.72C608.432 425.693 606.725 423.4 605.637 420.84C604.57 418.259 604.037 415.443 604.037 412.392C604.037 409.32 604.57 406.493 605.637 403.912C606.725 401.309 608.432 399.027 610.757 397.064L611.813 398.28C610.149 399.752 608.848 401.725 607.909 404.2C606.97 406.675 606.501 409.405 606.501 412.392C606.501 415.357 606.97 418.088 607.909 420.584C608.848 423.059 610.149 425.032 611.813 426.504L610.757 427.72ZM614.213 421V407.08H611.013V405.096H614.213V403.88C614.213 401.704 614.746 400.019 615.813 398.824C616.901 397.608 618.33 397 620.101 397C621.253 397 622.17 397.235 622.853 397.704L621.925 399.496C621.455 399.176 620.837 399.016 620.069 399.016C618.959 399.016 618.085 399.4 617.445 400.168C616.805 400.936 616.485 402.099 616.485 403.656V405.096H621.957V407.08H616.517V421H614.213ZM628.197 421.256C626.874 421.256 625.893 420.893 625.253 420.168C624.613 419.443 624.293 418.483 624.293 417.288V397.32H626.629V417C626.629 417.704 626.778 418.237 627.077 418.6C627.375 418.963 627.866 419.144 628.549 419.144C628.869 419.144 629.178 419.101 629.477 419.016C629.775 418.909 630.01 418.803 630.181 418.696L630.821 420.456C630.522 420.712 630.127 420.904 629.637 421.032C629.167 421.181 628.687 421.256 628.197 421.256ZM639.771 421.256C637.318 421.256 635.387 420.552 633.979 419.144C632.592 417.736 631.899 415.773 631.899 413.256C631.899 411.613 632.23 410.152 632.891 408.872C633.552 407.592 634.448 406.6 635.579 405.896C636.731 405.171 638.032 404.808 639.483 404.808C641.659 404.808 643.334 405.565 644.507 407.08C645.702 408.595 646.128 410.856 645.787 413.864H634.299C634.363 415.571 634.875 416.872 635.835 417.768C636.816 418.664 638.182 419.112 639.931 419.112C640.784 419.112 641.606 418.931 642.395 418.568C643.184 418.184 643.856 417.597 644.411 416.808L645.883 418.152C644.454 420.221 642.416 421.256 639.771 421.256ZM639.515 406.696C638.534 406.696 637.67 406.931 636.923 407.4C636.198 407.869 635.611 408.509 635.163 409.32C634.715 410.109 634.438 410.995 634.331 411.976H643.739C643.824 410.12 643.462 408.776 642.651 407.944C641.84 407.112 640.795 406.696 639.515 406.696ZM649.868 421H647.18L653.068 412.968L647.436 405.096H650.284L654.508 411.016L658.796 405.096H661.484L655.82 412.872L661.612 421H658.796L654.38 414.792L649.868 421ZM666.782 405.096V421H664.478V405.096H666.782ZM665.694 401.48C665.182 401.48 664.787 401.32 664.51 401C664.233 400.68 664.094 400.307 664.094 399.88C664.094 399.453 664.233 399.08 664.51 398.76C664.809 398.44 665.203 398.28 665.694 398.28C666.185 398.28 666.569 398.44 666.846 398.76C667.145 399.08 667.294 399.453 667.294 399.88C667.294 400.307 667.145 400.68 666.846 401C666.569 401.32 666.185 401.48 665.694 401.48ZM671.572 421V397.32H673.908V405.064L673.812 408.904C674.388 407.645 675.177 406.653 676.18 405.928C677.183 405.181 678.345 404.808 679.668 404.808C681.012 404.808 682.143 405.128 683.06 405.768C683.999 406.387 684.703 407.261 685.172 408.392C685.663 409.501 685.908 410.781 685.908 412.232C685.908 414.003 685.588 415.571 684.948 416.936C684.308 418.28 683.412 419.336 682.26 420.104C681.108 420.872 679.775 421.256 678.26 421.256C677.193 421.256 676.255 421.011 675.444 420.52C674.633 420.008 674.047 419.357 673.684 418.568L673.332 421H671.572ZM678.196 419.112C679.796 419.112 681.076 418.504 682.036 417.288C682.996 416.051 683.476 414.419 683.476 412.392C683.476 410.685 683.103 409.352 682.356 408.392C681.631 407.411 680.628 406.92 679.348 406.92C678.303 406.92 677.364 407.229 676.532 407.848C675.721 408.467 675.071 409.32 674.58 410.408C674.111 411.496 673.876 412.733 673.876 414.12C673.876 415.677 674.26 416.904 675.028 417.8C675.817 418.675 676.873 419.112 678.196 419.112ZM693.913 421.256C692.591 421.256 691.609 420.893 690.969 420.168C690.329 419.443 690.009 418.483 690.009 417.288V397.32H692.345V417C692.345 417.704 692.495 418.237 692.793 418.6C693.092 418.963 693.583 419.144 694.265 419.144C694.585 419.144 694.895 419.101 695.193 419.016C695.492 418.909 695.727 418.803 695.897 418.696L696.537 420.456C696.239 420.712 695.844 420.904 695.353 421.032C694.884 421.181 694.404 421.256 693.913 421.256ZM705.49 421.256C703.037 421.256 701.106 420.552 699.698 419.144C698.311 417.736 697.618 415.773 697.618 413.256C697.618 411.613 697.949 410.152 698.61 408.872C699.271 407.592 700.167 406.6 701.298 405.896C702.45 405.171 703.751 404.808 705.202 404.808C707.378 404.808 709.053 405.565 710.226 407.08C711.421 408.595 711.847 410.856 711.506 413.864H700.018C700.082 415.571 700.594 416.872 701.554 417.768C702.535 418.664 703.901 419.112 705.65 419.112C706.503 419.112 707.325 418.931 708.114 418.568C708.903 418.184 709.575 417.597 710.13 416.808L711.602 418.152C710.173 420.221 708.135 421.256 705.49 421.256ZM705.234 406.696C704.253 406.696 703.389 406.931 702.642 407.4C701.917 407.869 701.33 408.509 700.882 409.32C700.434 410.109 700.157 410.995 700.05 411.976H709.458C709.543 410.12 709.181 408.776 708.37 407.944C707.559 407.112 706.514 406.696 705.234 406.696ZM713.118 427.72L712.062 426.504C713.726 425.032 715.028 423.059 715.966 420.584C716.905 418.088 717.374 415.357 717.374 412.392C717.374 409.405 716.905 406.675 715.966 404.2C715.028 401.725 713.726 399.752 712.062 398.28L713.118 397.064C715.444 399.027 717.14 401.309 718.206 403.912C719.294 406.493 719.838 409.32 719.838 412.392C719.838 415.443 719.294 418.259 718.206 420.84C717.14 423.4 715.444 425.693 713.118 427.72ZM742.703 405.096H745.039L738.831 421H735.567L730.415 405.096H732.911L737.327 419.112L742.703 405.096ZM760.641 405.096V421H758.273L758.369 417.256C757.772 418.493 756.972 419.475 755.969 420.2C754.967 420.904 753.825 421.256 752.545 421.256C751.201 421.256 750.071 420.947 749.153 420.328C748.236 419.688 747.532 418.813 747.041 417.704C746.551 416.573 746.305 415.272 746.305 413.8C746.305 412.029 746.625 410.472 747.265 409.128C747.905 407.763 748.801 406.707 749.953 405.96C751.105 405.192 752.439 404.808 753.953 404.808C755.02 404.808 755.959 405.053 756.769 405.544C757.58 406.035 758.177 406.664 758.561 407.432L758.881 405.096H760.641ZM754.017 406.92C752.417 406.92 751.137 407.528 750.177 408.744C749.217 409.96 748.737 411.581 748.737 413.608C748.737 415.336 749.1 416.691 749.825 417.672C750.572 418.632 751.585 419.112 752.865 419.112C753.911 419.112 754.849 418.803 755.681 418.184C756.513 417.565 757.164 416.712 757.633 415.624C758.103 414.536 758.337 413.288 758.337 411.88C758.337 410.344 757.953 409.139 757.185 408.264C756.417 407.368 755.361 406.92 754.017 406.92ZM769.351 421.256C768.028 421.256 767.047 420.893 766.407 420.168C765.767 419.443 765.447 418.483 765.447 417.288V397.32H767.783V417C767.783 417.704 767.932 418.237 768.231 418.6C768.53 418.963 769.02 419.144 769.703 419.144C770.023 419.144 770.332 419.101 770.631 419.016C770.93 418.909 771.164 418.803 771.335 418.696L771.975 420.456C771.676 420.712 771.282 420.904 770.791 421.032C770.322 421.181 769.842 421.256 769.351 421.256ZM778.527 421.256C776.927 421.256 775.701 420.701 774.847 419.592C773.994 418.483 773.567 416.947 773.567 414.984L773.663 405.096H775.999L775.903 414.696C775.882 416.083 776.127 417.16 776.639 417.928C777.151 418.696 777.962 419.08 779.071 419.08C780.159 419.08 781.119 418.643 781.951 417.768C782.783 416.893 783.434 415.443 783.903 413.416C784.394 411.368 784.65 408.595 784.671 405.096H786.911V421H784.543L784.735 415.784C784.138 417.661 783.295 419.048 782.207 419.944C781.119 420.819 779.893 421.256 778.527 421.256ZM798.865 421.256C796.412 421.256 794.481 420.552 793.073 419.144C791.686 417.736 790.993 415.773 790.993 413.256C790.993 411.613 791.324 410.152 791.985 408.872C792.646 407.592 793.542 406.6 794.673 405.896C795.825 405.171 797.126 404.808 798.577 404.808C800.753 404.808 802.428 405.565 803.601 407.08C804.796 408.595 805.222 410.856 804.881 413.864H793.393C793.457 415.571 793.969 416.872 794.929 417.768C795.91 418.664 797.276 419.112 799.025 419.112C799.878 419.112 800.7 418.931 801.489 418.568C802.278 418.184 802.95 417.597 803.505 416.808L804.977 418.152C803.548 420.221 801.51 421.256 798.865 421.256ZM798.609 406.696C797.628 406.696 796.764 406.931 796.017 407.4C795.292 407.869 794.705 408.509 794.257 409.32C793.809 410.109 793.532 410.995 793.425 411.976H802.833C802.918 410.12 802.556 408.776 801.745 407.944C800.934 407.112 799.889 406.696 798.609 406.696Z" fill="#333333"/>
<path d="M767.728 335V319.096H770.096L769.904 324.568C770.48 322.605 771.312 321.155 772.4 320.216C773.509 319.277 774.736 318.808 776.08 318.808C777.467 318.808 778.587 319.224 779.44 320.056C780.293 320.888 780.816 322.147 781.008 323.832C781.605 322.147 782.459 320.888 783.568 320.056C784.699 319.224 785.915 318.808 787.216 318.808C788.837 318.808 790.075 319.373 790.928 320.504C791.803 321.635 792.229 323.267 792.208 325.4L792.144 335H789.808L789.872 325.688C789.915 322.552 788.837 320.984 786.64 320.984C785.915 320.984 785.221 321.208 784.56 321.656C783.899 322.104 783.301 322.861 782.768 323.928C782.256 324.973 781.851 326.403 781.552 328.216C781.253 330.029 781.104 332.291 781.104 335H778.8V325.688C778.8 324.109 778.544 322.936 778.032 322.168C777.541 321.379 776.741 320.984 775.632 320.984C774.885 320.984 774.181 321.208 773.52 321.656C772.859 322.104 772.261 322.861 771.728 323.928C771.216 324.973 770.8 326.403 770.48 328.216C770.181 330.029 770.032 332.291 770.032 335H767.728ZM810.454 319.096V335H808.086L808.182 331.256C807.585 332.493 806.785 333.475 805.782 334.2C804.779 334.904 803.638 335.256 802.358 335.256C801.014 335.256 799.883 334.947 798.966 334.328C798.049 333.688 797.345 332.813 796.854 331.704C796.363 330.573 796.118 329.272 796.118 327.8C796.118 326.029 796.438 324.472 797.078 323.128C797.718 321.763 798.614 320.707 799.766 319.96C800.918 319.192 802.251 318.808 803.766 318.808C804.833 318.808 805.771 319.053 806.582 319.544C807.393 320.035 807.99 320.664 808.374 321.432L808.694 319.096H810.454ZM803.83 320.92C802.23 320.92 800.95 321.528 799.99 322.744C799.03 323.96 798.55 325.581 798.55 327.608C798.55 329.336 798.913 330.691 799.638 331.672C800.385 332.632 801.398 333.112 802.678 333.112C803.723 333.112 804.662 332.803 805.494 332.184C806.326 331.565 806.977 330.712 807.446 329.624C807.915 328.536 808.15 327.288 808.15 325.88C808.15 324.344 807.766 323.139 806.998 322.264C806.23 321.368 805.174 320.92 803.83 320.92ZM815.899 335H813.211L819.099 326.968L813.467 319.096H816.315L820.539 325.016L824.827 319.096H827.515L821.851 326.872L827.643 335H824.827L820.411 328.792L815.899 335ZM832.813 319.096V335H830.509V319.096H832.813ZM831.725 315.48C831.213 315.48 830.819 315.32 830.541 315C830.264 314.68 830.125 314.307 830.125 313.88C830.125 313.453 830.264 313.08 830.541 312.76C830.84 312.44 831.235 312.28 831.725 312.28C832.216 312.28 832.6 312.44 832.877 312.76C833.176 313.08 833.325 313.453 833.325 313.88C833.325 314.307 833.176 314.68 832.877 315C832.6 315.32 832.216 315.48 831.725 315.48ZM837.603 335V319.096H839.971L839.779 324.568C840.355 322.605 841.187 321.155 842.275 320.216C843.384 319.277 844.611 318.808 845.955 318.808C847.342 318.808 848.462 319.224 849.315 320.056C850.168 320.888 850.691 322.147 850.883 323.832C851.48 322.147 852.334 320.888 853.443 320.056C854.574 319.224 855.79 318.808 857.091 318.808C858.712 318.808 859.95 319.373 860.803 320.504C861.678 321.635 862.104 323.267 862.083 325.4L862.019 335H859.683L859.747 325.688C859.79 322.552 858.712 320.984 856.515 320.984C855.79 320.984 855.096 321.208 854.435 321.656C853.774 322.104 853.176 322.861 852.643 323.928C852.131 324.973 851.726 326.403 851.427 328.216C851.128 330.029 850.979 332.291 850.979 335H848.675V325.688C848.675 324.109 848.419 322.936 847.907 322.168C847.416 321.379 846.616 320.984 845.507 320.984C844.76 320.984 844.056 321.208 843.395 321.656C842.734 322.104 842.136 322.861 841.603 323.928C841.091 324.973 840.675 326.403 840.355 328.216C840.056 330.029 839.907 332.291 839.907 335H837.603ZM871.465 335.256C869.865 335.256 868.638 334.701 867.785 333.592C866.932 332.483 866.505 330.947 866.505 328.984L866.601 319.096H868.937L868.841 328.696C868.82 330.083 869.065 331.16 869.577 331.928C870.089 332.696 870.9 333.08 872.009 333.08C873.097 333.08 874.057 332.643 874.889 331.768C875.721 330.893 876.372 329.443 876.841 327.416C877.332 325.368 877.588 322.595 877.609 319.096H879.849V335H877.481L877.673 329.784C877.076 331.661 876.233 333.048 875.145 333.944C874.057 334.819 872.83 335.256 871.465 335.256ZM884.634 335V319.096H887.002L886.81 324.568C887.386 322.605 888.218 321.155 889.306 320.216C890.416 319.277 891.642 318.808 892.986 318.808C894.373 318.808 895.493 319.224 896.346 320.056C897.2 320.888 897.722 322.147 897.914 323.832C898.512 322.147 899.365 320.888 900.474 320.056C901.605 319.224 902.821 318.808 904.122 318.808C905.744 318.808 906.981 319.373 907.834 320.504C908.709 321.635 909.136 323.267 909.114 325.4L909.05 335H906.714L906.778 325.688C906.821 322.552 905.744 320.984 903.546 320.984C902.821 320.984 902.128 321.208 901.466 321.656C900.805 322.104 900.208 322.861 899.674 323.928C899.162 324.973 898.757 326.403 898.458 328.216C898.16 330.029 898.01 332.291 898.01 335H895.706V325.688C895.706 324.109 895.45 322.936 894.938 322.168C894.448 321.379 893.648 320.984 892.538 320.984C891.792 320.984 891.088 321.208 890.426 321.656C889.765 322.104 889.168 322.861 888.634 323.928C888.122 324.973 887.706 326.403 887.386 328.216C887.088 330.029 886.938 332.291 886.938 335H884.634ZM931.953 319.096H934.289L928.081 335H924.817L919.665 319.096H922.161L926.577 333.112L931.953 319.096ZM949.891 319.096V335H947.523L947.619 331.256C947.022 332.493 946.222 333.475 945.219 334.2C944.217 334.904 943.075 335.256 941.795 335.256C940.451 335.256 939.321 334.947 938.403 334.328C937.486 333.688 936.782 332.813 936.291 331.704C935.801 330.573 935.555 329.272 935.555 327.8C935.555 326.029 935.875 324.472 936.515 323.128C937.155 321.763 938.051 320.707 939.203 319.96C940.355 319.192 941.689 318.808 943.203 318.808C944.27 318.808 945.209 319.053 946.019 319.544C946.83 320.035 947.427 320.664 947.811 321.432L948.131 319.096H949.891ZM943.267 320.92C941.667 320.92 940.387 321.528 939.427 322.744C938.467 323.96 937.987 325.581 937.987 327.608C937.987 329.336 938.35 330.691 939.075 331.672C939.822 332.632 940.835 333.112 942.115 333.112C943.161 333.112 944.099 332.803 944.931 332.184C945.763 331.565 946.414 330.712 946.883 329.624C947.353 328.536 947.587 327.288 947.587 325.88C947.587 324.344 947.203 323.139 946.435 322.264C945.667 321.368 944.611 320.92 943.267 320.92ZM958.601 335.256C957.278 335.256 956.297 334.893 955.657 334.168C955.017 333.443 954.697 332.483 954.697 331.288V311.32H957.033V331C957.033 331.704 957.182 332.237 957.481 332.6C957.78 332.963 958.27 333.144 958.953 333.144C959.273 333.144 959.582 333.101 959.881 333.016C960.18 332.909 960.414 332.803 960.585 332.696L961.225 334.456C960.926 334.712 960.532 334.904 960.041 335.032C959.572 335.181 959.092 335.256 958.601 335.256ZM967.777 335.256C966.177 335.256 964.951 334.701 964.097 333.592C963.244 332.483 962.817 330.947 962.817 328.984L962.913 319.096H965.249L965.153 328.696C965.132 330.083 965.377 331.16 965.889 331.928C966.401 332.696 967.212 333.08 968.321 333.08C969.409 333.08 970.369 332.643 971.201 331.768C972.033 330.893 972.684 329.443 973.153 327.416C973.644 325.368 973.9 322.595 973.921 319.096H976.161V335H973.793L973.985 329.784C973.388 331.661 972.545 333.048 971.457 333.944C970.369 334.819 969.143 335.256 967.777 335.256ZM988.115 335.256C985.662 335.256 983.731 334.552 982.323 333.144C980.936 331.736 980.243 329.773 980.243 327.256C980.243 325.613 980.574 324.152 981.235 322.872C981.896 321.592 982.792 320.6 983.923 319.896C985.075 319.171 986.376 318.808 987.827 318.808C990.003 318.808 991.678 319.565 992.851 321.08C994.046 322.595 994.472 324.856 994.131 327.864H982.643C982.707 329.571 983.219 330.872 984.179 331.768C985.16 332.664 986.526 333.112 988.275 333.112C989.128 333.112 989.95 332.931 990.739 332.568C991.528 332.184 992.2 331.597 992.755 330.808L994.227 332.152C992.798 334.221 990.76 335.256 988.115 335.256ZM987.859 320.696C986.878 320.696 986.014 320.931 985.267 321.4C984.542 321.869 983.955 322.509 983.507 323.32C983.059 324.109 982.782 324.995 982.675 325.976H992.083C992.168 324.12 991.806 322.776 990.995 321.944C990.184 321.112 989.139 320.696 987.859 320.696Z" fill="#333333"/>
</svg>
